<svg xmlns="http://www.w3.org/2000/svg" version="1.1" xmlns:xlink="http://www.w3.org/1999/xlink" xmlns:svgjs="http://svgjs.dev/svgjs" width="200" height="35.33" viewBox="0 0 1500 265">
                <g transform="matrix(1,0,0,1,-0.9090909090909918,0.5670605071089767)">
                    <svg viewBox="0 0 396 70" data-background-color="#ffffff" preserveAspectRatio="xMidYMid meet" height="265" width="1500" xmlns="http://www.w3.org/2000/svg" xmlns:xlink="http://www.w3.org/1999/xlink">
                        <g id="tight-bounds" transform="matrix(1,0,0,1,0.2400000000000091,-0.14978956791557607)">
                            <svg viewBox="0 0 395.52 70.29957913583115" height="70.29957913583115" width="395.52">
                                <g>
                                    <svg viewBox="0 0 682.0948087065356 121.2352800940653" height="70.29957913583115" width="395.52">
                                        <g>
                                            <rect
                                                width="6.758521161165667"
                                                height="121.2352800940653"
                                                x="262.12382377268494"
                                                y="0"
                                                fill="#152232"
                                                opacity="1"
                                                stroke-width="0"
                                                stroke="transparent"
                                                fill-opacity="1"
                                                class="rect-yte-0"
                                                data-fill-palette-color="primary"
                                                rx="1%"
                                                id="yte-0"
                                                data-palette-color="#152232"
                                            ></rect>
                                        </g>
                                        <g transform="matrix(1,0,0,1,286.57480870653563,0.30158029874144887)">
                                            <svg viewBox="0 0 395.5199999999999 120.6321194965824" height="120.6321194965824" width="395.5199999999999">
                                                <g id="textblocktransform">
                                                    <svg viewBox="0 0 395.5199999999999 120.6321194965824" height="120.6321194965824" width="395.5199999999999" id="textblock">
                                                        <g>
                                                            <svg viewBox="0 0 395.5199999999999 74.94393234672305" height="74.94393234672305" width="395.5199999999999">
                                                                <g transform="matrix(1,0,0,1,0,0)">
                                                                    <svg width="395.5199999999999" viewBox="0.3 -35.35 189.17999999999998 35.85" height="74.94393234672305" data-palette-color="#152232">
                                                                        <path
                                                                            d="M0.3-0.25L0.3-0.25 6.5-34.6Q6.55-34.8 6.75-34.8L6.75-34.8 14-34.8Q14.2-34.8 14.25-34.6L14.25-34.6 20.2-0.25Q20.25 0 20 0L20 0 14.45 0Q14.25 0 14.2-0.25L14.2-0.25 13.65-3.9 6.85-3.9 6.3-0.25Q6.25 0 6.05 0L6.05 0 0.5 0Q0.3 0 0.3-0.25ZM10.1-23.3L7.85-9.25 12.65-9.25 10.6-23.3 10.3-25.15 10.1-23.3ZM31.45 0.5L31.45 0.5Q28.75 0.5 26.55-0.85 24.35-2.2 23.02-4.48 21.7-6.75 21.7-9.55L21.7-9.55 21.7-25.4Q21.7-28.1 23.02-30.38 24.35-32.65 26.57-34 28.8-35.35 31.45-35.35L31.45-35.35Q34.2-35.35 36.42-34.02 38.65-32.7 39.95-30.45 41.25-28.2 41.25-25.4L41.25-25.4 41.25-23.1Q41.25-22.9 41-22.9L41-22.9 35.4-22.9Q35.2-22.9 35.2-23.1L35.2-23.1 35.2-25Q35.2-26.9 34.12-28.15 33.05-29.4 31.45-29.4L31.45-29.4Q30-29.4 28.87-28.2 27.75-27 27.75-25.4L27.75-25.4 27.75-9.55Q27.75-7.9 28.85-6.73 29.95-5.55 31.45-5.55L31.45-5.55Q33.05-5.55 34.12-6.7 35.2-7.85 35.2-9.55L35.2-9.55 35.2-12 31.7-12Q31.45-12 31.45-12.25L31.45-12.25 31.45-17.85Q31.45-18.1 31.7-18.1L31.7-18.1 41.05-18.1Q41.25-18.1 41.25-17.85L41.25-17.85 41.25-9.55Q41.25-6.75 39.92-4.48 38.6-2.2 36.4-0.85 34.2 0.5 31.45 0.5ZM50.65 0L45 0Q44.8 0 44.8-0.25L44.8-0.25 44.9-34.6Q44.9-34.8 45.09-34.8L45.09-34.8 55.2-34.8Q57.9-34.8 60.17-33.48 62.45-32.15 63.8-29.93 65.15-27.7 65.15-24.9L65.15-24.9Q65.15-23.05 64.59-21.58 64.05-20.1 63.3-19.07 62.55-18.05 61.95-17.55L61.95-17.55Q64.65-14.55 64.65-10.5L64.65-10.5 64.7-0.25Q64.7 0 64.45 0L64.45 0 58.8 0Q58.59 0 58.59-0.15L58.59-0.15 58.59-10.5Q58.59-12.3 57.32-13.63 56.05-14.95 54.2-14.95L54.2-14.95 50.9-14.95 50.84-0.25Q50.84 0 50.65 0L50.65 0ZM50.9-28.8L50.9-20.95 55.2-20.95Q56.75-20.95 57.95-22.1 59.15-23.25 59.15-24.9L59.15-24.9Q59.15-26.5 57.97-27.65 56.8-28.8 55.2-28.8L55.2-28.8 50.9-28.8ZM74.79 0L69.14 0Q68.89 0 68.89-0.25L68.89-0.25 68.94-34.6Q68.94-34.8 69.14-34.8L69.14-34.8 74.74-34.8Q74.94-34.8 74.94-34.6L74.94-34.6 74.99-0.25Q74.99 0 74.79 0L74.79 0ZM90.04 0L83.99 0Q83.79 0 83.74-0.25L83.74-0.25 77.84-34.6Q77.79-34.8 77.99-34.8L77.99-34.8 83.59-34.8Q83.79-34.8 83.84-34.6L83.84-34.6 87.04-12 90.34-34.6Q90.39-34.8 90.64-34.8L90.64-34.8 95.14-34.8Q95.34-34.8 95.39-34.6L95.39-34.6 98.64-12 101.89-34.6Q101.94-34.8 102.14-34.8L102.14-34.8 107.69-34.8Q107.94-34.8 107.89-34.6L107.89-34.6 101.94-0.25Q101.89-0.15 101.79-0.08 101.69 0 101.69 0L101.69 0 95.64 0Q95.49 0 95.39-0.25L95.39-0.25 92.84-18.2 90.29-0.25Q90.24 0 90.04 0L90.04 0ZM107.04-0.25L107.04-0.25 113.24-34.6Q113.29-34.8 113.49-34.8L113.49-34.8 120.74-34.8Q120.94-34.8 120.99-34.6L120.99-34.6 126.94-0.25Q126.99 0 126.74 0L126.74 0 121.19 0Q120.99 0 120.94-0.25L120.94-0.25 120.39-3.9 113.59-3.9 113.04-0.25Q112.99 0 112.79 0L112.79 0 107.24 0Q107.04 0 107.04-0.25ZM116.84-23.3L114.59-9.25 119.39-9.25 117.34-23.3 117.04-25.15 116.84-23.3ZM138.34 0L132.69 0Q132.49 0 132.49-0.25L132.49-0.25 132.49-28.75 125.99-28.75Q125.74-28.75 125.74-29L125.74-29 125.79-34.6Q125.79-34.8 125.99-34.8L125.99-34.8 144.99-34.8Q145.24-34.8 145.24-34.6L145.24-34.6 145.24-29Q145.24-28.75 145.04-28.75L145.04-28.75 138.49-28.75 138.54-0.25Q138.54 0 138.34 0L138.34 0ZM156.38 0.5L156.38 0.5Q153.63 0.5 151.41-0.88 149.18-2.25 147.88-4.55 146.58-6.85 146.58-9.7L146.58-9.7 146.63-25.3Q146.63-28.05 147.91-30.33 149.18-32.6 151.41-33.98 153.63-35.35 156.38-35.35L156.38-35.35Q159.13-35.35 161.33-34 163.53-32.65 164.83-30.38 166.13-28.1 166.13-25.3L166.13-25.3 166.13-23Q166.13-22.8 165.93-22.8L165.93-22.8 160.33-22.8Q160.13-22.8 160.13-23L160.13-23 160.13-25.3Q160.13-26.95 159.06-28.15 157.98-29.35 156.38-29.35L156.38-29.35Q154.58-29.35 153.63-28.13 152.68-26.9 152.68-25.3L152.68-25.3 152.68-9.7Q152.68-7.85 153.76-6.7 154.83-5.55 156.38-5.55L156.38-5.55Q157.98-5.55 159.06-6.83 160.13-8.1 160.13-9.7L160.13-9.7 160.13-12Q160.13-12.2 160.33-12.2L160.33-12.2 165.98-12.2Q166.18-12.2 166.18-12L166.18-12 166.18-9.7Q166.18-6.85 164.86-4.55 163.53-2.25 161.33-0.88 159.13 0.5 156.38 0.5ZM175.68 0L170.03 0Q169.83 0 169.83-0.25L169.83-0.25 169.88-34.6Q169.88-34.8 170.13-34.8L170.13-34.8 175.68-34.8Q175.93-34.8 175.93-34.6L175.93-34.6 175.88-21 183.38-21 183.38-34.6Q183.38-34.8 183.58-34.8L183.58-34.8 189.13-34.8Q189.38-34.8 189.38-34.6L189.38-34.6 189.48-0.25Q189.48 0 189.23 0L189.23 0 183.63 0Q183.38 0 183.38-0.25L183.38-0.25 183.38-14.95 175.88-14.95 175.88-0.25Q175.88 0 175.68 0L175.68 0Z"
                                                                            opacity="1"
                                                                            transform="matrix(1,0,0,1,0,0)"
                                                                            fill="#152232"
                                                                            class="wordmark-text-0"
                                                                            data-fill-palette-color="primary"
                                                                            id="text-0"
                                                                        ></path>
                                                                    </svg>
                                                                </g>
                                                            </svg>
                                                        </g>
                                                        <g transform="matrix(1,0,0,1,0,92.63639611940803)">
                                                            <svg viewBox="0 0 395.5199999999999 27.995723377174365" height="27.995723377174365" width="395.5199999999999">
                                                                <g transform="matrix(1,0,0,1,0,0)">
                                                                    <svg width="395.5199999999999" viewBox="0.6 -37.9 707.02 50.05" height="27.995723377174365" data-palette-color="#5ebc67">
                                                                        <path
                                                                            d="M11.5 0L11.5-12.4 0.6-34.1 5.25-34.1 13.6-17.55 22-34.1 26.65-34.1 15.75-12.4 15.75 0 11.5 0ZM31.05-12.45L31.05-12.45Q31.05-7.6 33.22-5.23 35.4-2.85 39.1-2.85L39.1-2.85Q42.75-2.85 44.8-5.2 46.85-7.55 46.85-12.25L46.85-12.25Q46.85-17.25 44.67-19.7 42.5-22.15 38.75-22.15L38.75-22.15Q35-22.15 33.02-19.73 31.05-17.3 31.05-12.45ZM26.8-12.5L26.8-12.5Q26.8-16.3 28-18.82 29.2-21.35 31.05-22.88 32.9-24.4 35.02-25.03 37.15-25.65 39.05-25.65L39.05-25.65Q40.85-25.65 42.97-25.08 45.1-24.5 46.9-23.03 48.7-21.55 49.9-19.07 51.1-16.6 51.1-12.8L51.1-12.8Q51.1-8.85 49.87-6.25 48.65-3.65 46.8-2.13 44.95-0.6 42.8 0.03 40.65 0.65 38.8 0.65L38.8 0.65Q36.9 0.65 34.8 0.05 32.7-0.55 30.92-2.02 29.15-3.5 27.97-6.05 26.8-8.6 26.8-12.5ZM72.25 0.4L71.95-2.75 71.84-2.75Q71.4-2.4 70.55-1.83 69.7-1.25 68.59-0.7 67.5-0.15 66.17 0.25 64.84 0.65 63.5 0.65L63.5 0.65Q61.65 0.65 60.34 0.18 59.05-0.3 58.25-1.4 57.45-2.5 57.09-4.3 56.75-6.1 56.75-8.8L56.75-8.8 56.75-25.15 60.75-25.15 60.75-9.4Q60.75-7.9 60.8-6.7 60.84-5.5 61.15-4.65 61.45-3.8 62.12-3.33 62.8-2.85 64.05-2.85L64.05-2.85Q65.34-2.85 66.75-3.4 68.15-3.95 69.3-4.65L69.3-4.65Q70.65-5.45 71.95-6.45L71.95-6.45 71.95-25.15 75.95-25.15 75.95-3.25Q76-1.45 76.2 0L76.2 0 72.25 0.4ZM83.24 0L83.24-21.1Q83.24-22.25 82.99-24.7L82.99-24.7 86.69-25.2 87.09-21.55 87.14-21.55Q88.04-22.7 88.89-23.55 89.74-24.4 90.67-25.03 91.59-25.65 92.44-25.65L92.44-25.65Q93.59-25.7 95.64-25.4L95.64-25.4 94.74-21.55Q93.09-21.85 92.44-21.8L92.44-21.8Q91.59-21.8 90.64-21 89.69-20.2 88.99-19.3L88.99-19.3Q88.09-18.2 87.24-16.8L87.24-16.8 87.24 0 83.24 0ZM112.29 0L112.29-34.1 116.49-34.1 116.49-4 131.99-4 131.99 0 112.29 0ZM150.44-5.85L150.44-11.55Q149.44-11.5 148.53-11.45 147.64-11.4 146.76-11.33 145.89-11.25 145.19-11.15L145.19-11.15Q141.59-10.7 140.09-9.58 138.59-8.45 138.59-6.35L138.59-6.35Q138.59-4.6 139.66-3.73 140.74-2.85 142.49-2.85L142.49-2.85Q144.89-2.85 146.76-3.68 148.64-4.5 150.44-5.85L150.44-5.85ZM150.89 0.4L150.39-2.35Q148.03-1 146.01-0.18 143.99 0.65 141.64 0.65L141.64 0.65Q138.28 0.65 136.31-0.98 134.34-2.6 134.34-6.35L134.34-6.35Q134.34-8.3 135.34-9.75 136.34-11.2 137.96-12.18 139.59-13.15 141.64-13.7 143.69-14.25 145.84-14.4L145.84-14.4Q146.74-14.5 148.19-14.58 149.64-14.65 150.44-14.7L150.44-14.7Q150.44-16.45 150.34-17.82 150.24-19.2 149.74-20.18 149.24-21.15 148.26-21.65 147.28-22.15 145.49-22.15L145.49-22.15Q144.03-22.15 142.69-21.98 141.34-21.8 140.28-21.6L140.28-21.6Q139.03-21.35 137.99-21.05L137.99-21.05 137.19-24.5Q138.44-24.8 139.89-25.05L139.89-25.05Q141.14-25.3 142.78-25.48 144.44-25.65 146.34-25.65L146.34-25.65Q148.89-25.65 150.46-24.9 152.04-24.15 152.91-22.88 153.79-21.6 154.11-19.98 154.44-18.35 154.44-16.55L154.44-16.55 154.44-4.55Q154.44-3.85 154.46-3.08 154.49-2.3 154.56-1.55 154.64-0.8 154.74 0L154.74 0 150.89 0.4ZM161.53 0L161.53-20.15Q161.58-21.2 161.28-24.7L161.28-24.7 164.98-25.2 165.53-22Q167.03-23 168.51-23.75 169.98-24.5 171.53-25.08 173.08-25.65 174.53-25.65L174.53-25.65Q176.58-25.65 177.96-25.18 179.33-24.7 180.18-23.6 181.03-22.5 181.41-20.7 181.78-18.9 181.78-16.2L181.78-16.2 181.78 0 177.78 0 177.78-15.75Q177.78-17.25 177.73-18.43 177.68-19.6 177.31-20.43 176.93-21.25 176.16-21.7 175.38-22.15 173.98-22.15L173.98-22.15Q172.68-22.15 171.23-21.58 169.78-21 168.38-20.25 166.98-19.5 165.53-18.5L165.53-18.5 165.53 0 161.53 0ZM204.53-5.5L204.53-21.4Q202.73-21.9 201.73-22.03 200.73-22.15 199.68-22.15L199.68-22.15Q197.58-22.15 196.08-21.4 194.58-20.65 193.61-19.33 192.63-18 192.18-16.28 191.73-14.55 191.73-12.6L191.73-12.6Q191.73-10.85 192.11-9.1 192.48-7.35 193.28-5.95 194.08-4.55 195.23-3.7 196.38-2.85 197.98-2.85L197.98-2.85Q199.08-2.85 200.26-3.25 201.43-3.65 202.43-4.17 203.43-4.7 204.53-5.5L204.53-5.5ZM204.98 0.4L204.58-2Q203.43-1.2 202.36-0.68 201.28-0.15 200.01 0.25 198.73 0.65 197.53 0.65L197.53 0.65Q192.83 0.65 190.16-2.68 187.48-6 187.48-12.4L187.48-12.4Q187.48-16.2 188.71-18.75 189.93-21.3 191.78-22.83 193.63-24.35 195.76-25 197.88-25.65 199.68-25.65L199.68-25.65Q200.58-25.65 201.58-25.53 202.58-25.4 204.53-24.9L204.53-24.9 204.53-37.45 208.53-37.9 208.53-4.55Q208.53-3.85 208.56-3.08 208.58-2.3 208.66-1.55 208.73-0.8 208.83 0L208.83 0 204.98 0.4ZM215.18-25.65L215.18-37.9 219.18-37.9 219.18-25.65 215.18-25.65ZM240.08-24.6L239.38-21.05Q237.28-21.7 235.65-21.93 234.03-22.15 232.68-22.15L232.68-22.15Q230.93-22.15 229.75-21.3 228.58-20.45 228.58-19.1L228.58-19.1Q228.63-17.9 229.63-17.05 230.63-16.2 231.95-15.53 233.28-14.85 234.9-14.05 236.53-13.25 237.95-12.25 239.38-11.25 240.28-9.85 241.18-8.45 241.23-6.5L241.23-6.5Q241.18-4.4 240.3-3.03 239.43-1.65 238.05-0.83 236.68 0 235.08 0.33 233.48 0.65 232.08 0.65L232.08 0.65Q230.28 0.65 228.35 0.45 226.43 0.25 224.23-0.4L224.23-0.4 224.98-4Q227.23-3.4 229.08-3.13 230.93-2.85 232.13-2.85L232.13-2.85Q233.03-2.85 233.9-3.05 234.78-3.25 235.48-3.63 236.18-4 236.6-4.6 237.03-5.2 237.03-5.95L237.03-5.95Q236.98-7.35 236.08-8.33 235.18-9.3 233.75-10.08 232.33-10.85 230.7-11.63 229.08-12.4 227.65-13.43 226.23-14.45 225.28-15.88 224.33-17.3 224.33-19.4L224.33-19.4Q224.33-20.9 225.1-22.08 225.88-23.25 227.1-24.03 228.33-24.8 229.8-25.23 231.28-25.65 232.68-25.65L232.68-25.65Q234.13-25.65 235.93-25.43 237.73-25.2 240.08-24.6L240.08-24.6ZM258.87 0L258.87-34.1 263.07-34.1 263.07 0 258.87 0ZM271.12 0L271.12-20.15Q271.17-21.2 270.87-24.7L270.87-24.7 274.57-25.2 275.12-22Q276.62-23 278.09-23.75 279.57-24.5 281.12-25.08 282.67-25.65 284.12-25.65L284.12-25.65Q286.17-25.65 287.54-25.18 288.92-24.7 289.77-23.6 290.62-22.5 290.99-20.7 291.37-18.9 291.37-16.2L291.37-16.2 291.37 0 287.37 0 287.37-15.75Q287.37-17.25 287.32-18.43 287.27-19.6 286.89-20.43 286.52-21.25 285.74-21.7 284.97-22.15 283.57-22.15L283.57-22.15Q282.27-22.15 280.82-21.58 279.37-21 277.97-20.25 276.57-19.5 275.12-18.5L275.12-18.5 275.12 0 271.12 0ZM312.72-24.6L312.02-21.05Q309.92-21.7 308.29-21.93 306.67-22.15 305.32-22.15L305.32-22.15Q303.57-22.15 302.39-21.3 301.22-20.45 301.22-19.1L301.22-19.1Q301.27-17.9 302.27-17.05 303.27-16.2 304.59-15.53 305.92-14.85 307.54-14.05 309.17-13.25 310.59-12.25 312.02-11.25 312.92-9.85 313.82-8.45 313.87-6.5L313.87-6.5Q313.82-4.4 312.94-3.03 312.07-1.65 310.69-0.83 309.32 0 307.72 0.33 306.12 0.65 304.72 0.65L304.72 0.65Q302.92 0.65 300.99 0.45 299.07 0.25 296.87-0.4L296.87-0.4 297.62-4Q299.87-3.4 301.72-3.13 303.57-2.85 304.77-2.85L304.77-2.85Q305.67-2.85 306.54-3.05 307.42-3.25 308.12-3.63 308.82-4 309.24-4.6 309.67-5.2 309.67-5.95L309.67-5.95Q309.62-7.35 308.72-8.33 307.82-9.3 306.39-10.08 304.97-10.85 303.34-11.63 301.72-12.4 300.29-13.43 298.87-14.45 297.92-15.88 296.97-17.3 296.97-19.4L296.97-19.4Q296.97-20.9 297.74-22.08 298.52-23.25 299.74-24.03 300.97-24.8 302.44-25.23 303.92-25.65 305.32-25.65L305.32-25.65Q306.77-25.65 308.57-25.43 310.37-25.2 312.72-24.6L312.72-24.6ZM319.26 0L319.26-25.2 323.26-25.65 323.26 0 319.26 0ZM318.61-32.35L318.61-32.35Q318.61-33.5 319.39-34.27 320.16-35.05 321.31-35.05L321.31-35.05Q322.51-35.05 323.34-34.27 324.16-33.5 324.16-32.35L324.16-32.35Q324.16-31.2 323.34-30.43 322.51-29.65 321.31-29.65L321.31-29.65Q320.16-29.65 319.39-30.43 318.61-31.2 318.61-32.35ZM350.16-24.55L350.16 2.4Q350.16 4.25 349.76 6 349.36 7.75 348.24 9.13 347.11 10.5 345.09 11.33 343.06 12.15 339.76 12.15L339.76 12.15Q337.66 12.1 336.11 11.9 334.56 11.7 333.16 11.33 331.76 10.95 330.61 10.45L330.61 10.45 331.66 6.95Q333.61 7.8 335.64 8.25 337.66 8.7 339.26 8.7L339.26 8.7Q341.01 8.7 342.31 8.35 343.61 8 344.49 7.18 345.36 6.35 345.79 5 346.21 3.65 346.21 1.65L346.21 1.65 346.21-2Q345.16-1.3 344.04-0.73 342.91-0.15 341.64 0.25 340.36 0.65 339.16 0.65L339.16 0.65Q334.51 0.65 331.81-2.63 329.11-5.9 329.11-12.4L329.11-12.4Q329.11-16.15 330.29-18.68 331.46-21.2 333.26-22.75 335.06-24.3 337.21-24.98 339.36-25.65 341.31-25.65L341.31-25.65Q343.86-25.65 345.99-25.23 348.11-24.8 350.16-24.55L350.16-24.55ZM339.61-2.85L339.61-2.85Q340.71-2.85 341.86-3.25 343.01-3.65 344.09-4.2 345.16-4.75 346.21-5.5L346.21-5.5 346.21-21.45Q345.61-21.6 344.81-21.8L344.81-21.8Q344.11-21.9 343.21-22.03 342.31-22.15 341.31-22.15L341.31-22.15Q339.21-22.15 337.71-21.4 336.21-20.65 335.24-19.35 334.26-18.05 333.81-16.3 333.36-14.55 333.36-12.6L333.36-12.6Q333.36-10.85 333.74-9.1 334.11-7.35 334.91-5.95 335.71-4.55 336.86-3.7 338.01-2.85 339.61-2.85ZM357.36 0L357.36-37.45 361.36-37.9 361.36-22Q362.86-23 364.33-23.75 365.81-24.5 367.36-25.08 368.91-25.65 370.36-25.65L370.36-25.65Q372.41-25.65 373.78-25.18 375.16-24.7 376.01-23.6 376.86-22.5 377.23-20.7 377.61-18.9 377.61-16.2L377.61-16.2 377.61 0 373.61 0 373.61-15.75Q373.61-17.25 373.56-18.43 373.51-19.6 373.13-20.43 372.76-21.25 371.98-21.7 371.21-22.15 369.81-22.15L369.81-22.15Q368.51-22.15 367.01-21.58 365.51-21 364.16-20.25 362.81-19.5 361.36-18.5L361.36-18.5 361.36 0 357.36 0ZM386.51-32.15L390.51-32.65 390.51-25.15 397.76-25.15 397.76-21.9 390.51-21.9 390.51-8.55Q390.51-6.9 390.58-5.8 390.66-4.7 390.91-4.05 391.16-3.4 391.61-3.13 392.06-2.85 392.76-2.85L392.76-2.85Q394.66-2.9 397.16-4.25L397.16-4.25 398.36-1.2Q396.71-0.1 395.28 0.28 393.86 0.65 392.46 0.65L392.46 0.65Q389.16 0.65 387.83-1.23 386.51-3.1 386.51-7.45L386.51-7.45 386.51-21.9 381.91-21.9 381.91-25.15 386.51-25.15 386.51-32.15ZM405 0L405-21.9 400.35-21.9 400.35-25.15 405-25.15Q405-28.65 405.48-31.08 405.95-33.5 407-35.02 408.05-36.55 409.7-37.23 411.35-37.9 413.7-37.9L413.7-37.9Q415.6-37.9 417.25-37.27 418.9-36.65 419.9-35.75L419.9-35.75 418.15-32.75Q417.15-33.5 416.08-33.95 415-34.4 413.75-34.4L413.75-34.4Q412.1-34.4 411.15-33.68 410.2-32.95 409.73-31.7 409.25-30.45 409.13-28.78 409-27.1 409-25.15L409-25.15 415.25-25.15 415.25-21.9 409-21.9 409 0 405 0ZM435.2 0.4L434.9-2.75 434.8-2.75Q434.35-2.4 433.5-1.83 432.65-1.25 431.55-0.7 430.45-0.15 429.13 0.25 427.8 0.65 426.45 0.65L426.45 0.65Q424.6 0.65 423.3 0.18 422-0.3 421.2-1.4 420.4-2.5 420.05-4.3 419.7-6.1 419.7-8.8L419.7-8.8 419.7-25.15 423.7-25.15 423.7-9.4Q423.7-7.9 423.75-6.7 423.8-5.5 424.1-4.65 424.4-3.8 425.08-3.33 425.75-2.85 427-2.85L427-2.85Q428.3-2.85 429.7-3.4 431.1-3.95 432.25-4.65L432.25-4.65Q433.6-5.45 434.9-6.45L434.9-6.45 434.9-25.15 438.9-25.15 438.9-3.25Q438.95-1.45 439.15 0L439.15 0 435.2 0.4ZM446.15 0L446.15-37.45 450.15-37.9 450.15 0 446.15 0ZM493.69-33L492.79-29.3Q491.54-29.7 490.14-30.03 488.74-30.35 487.07-30.58 485.39-30.8 483.54-30.8L483.54-30.8Q480.54-30.8 478.44-29.5 476.34-28.2 475.02-26.18 473.69-24.15 473.09-21.65 472.49-19.15 472.49-16.7L472.49-16.7Q472.49-13.6 473.37-11.08 474.24-8.55 475.77-6.78 477.29-5 479.32-4.05 481.34-3.1 483.59-3.1L483.59-3.1Q485.69-3.1 487.44-3.33 489.19-3.55 490.44-3.8L490.44-3.8Q491.89-4.1 493.04-4.5L493.04-4.5 493.89-0.95Q492.54-0.5 490.89-0.15L490.89-0.15Q489.49 0.15 487.64 0.4 485.79 0.65 483.59 0.65L483.59 0.65Q479.64 0.65 476.67-0.65 473.69-1.95 471.72-4.28 469.74-6.6 468.74-9.78 467.74-12.95 467.74-16.75L467.74-16.75Q467.74-21.1 468.94-24.43 470.14-27.75 472.24-30 474.34-32.25 477.24-33.4 480.14-34.55 483.59-34.55L483.59-34.55Q485.69-34.55 487.52-34.33 489.34-34.1 490.87-33.75 492.39-33.4 493.69-33L493.69-33ZM500.84-12.45L500.84-12.45Q500.84-7.6 503.02-5.23 505.19-2.85 508.89-2.85L508.89-2.85Q512.54-2.85 514.59-5.2 516.64-7.55 516.64-12.25L516.64-12.25Q516.64-17.25 514.47-19.7 512.29-22.15 508.54-22.15L508.54-22.15Q504.79-22.15 502.82-19.73 500.84-17.3 500.84-12.45ZM496.59-12.5L496.59-12.5Q496.59-16.3 497.79-18.82 498.99-21.35 500.84-22.88 502.69-24.4 504.82-25.03 506.94-25.65 508.84-25.65L508.84-25.65Q510.64-25.65 512.77-25.08 514.89-24.5 516.69-23.03 518.49-21.55 519.69-19.07 520.89-16.6 520.89-12.8L520.89-12.8Q520.89-8.85 519.67-6.25 518.44-3.65 516.59-2.13 514.74-0.6 512.59 0.03 510.44 0.65 508.59 0.65L508.59 0.65Q506.69 0.65 504.59 0.05 502.49-0.55 500.72-2.02 498.94-3.5 497.77-6.05 496.59-8.6 496.59-12.5ZM526.74 0L526.74-20.6Q526.74-22.3 526.44-24.7L526.44-24.7 530.19-25.2 530.74-22.05Q532.09-23.05 533.39-23.8 534.69-24.55 536.19-25.1 537.69-25.65 539.24-25.65L539.24-25.65Q541.74-25.65 543.19-24.78 544.64-23.9 545.34-21.8L545.34-21.8Q547.39-23.25 549.61-24.45 551.84-25.65 554.24-25.65L554.24-25.65Q556.09-25.65 557.39-25.18 558.69-24.7 559.49-23.6 560.29-22.5 560.64-20.7 560.99-18.9 560.99-16.2L560.99-16.2 560.99 0 556.99 0 556.99-15.75Q556.99-17.25 556.94-18.43 556.89-19.6 556.59-20.43 556.29-21.25 555.61-21.7 554.94-22.15 553.69-22.15L553.69-22.15Q552.54-22.15 551.51-21.83 550.49-21.5 549.39-20.9 548.29-20.3 545.99-18.45L545.99-18.45 545.99 0 541.99 0 541.99-15.75Q541.99-17.25 541.94-18.43 541.89-19.6 541.59-20.43 541.29-21.25 540.61-21.7 539.94-22.15 538.69-22.15L538.69-22.15Q537.39-22.15 535.99-21.6 534.59-21.05 533.34-20.3 532.09-19.55 530.74-18.55L530.74-18.55 530.74 0 526.74 0ZM568.09 11.4L568.09-19.35Q568.09-21.15 567.84-24.7L567.84-24.7 571.54-25.2 571.99-22.5Q572.99-23.35 574.06-24.03 575.14-24.7 576.41-25.18 577.69-25.65 579.14-25.65L579.14-25.65Q581.19-25.65 583.01-24.95 584.84-24.25 586.21-22.7 587.59-21.15 588.39-18.68 589.19-16.2 589.19-12.6L589.19-12.6Q589.19-8.95 588.11-6.43 587.04-3.9 585.31-2.33 583.59-0.75 581.41-0.05 579.24 0.65 576.99 0.65L576.99 0.65Q574.59 0.6 572.09 0.05L572.09 0.05 572.09 10.9 568.09 11.4ZM576.99-2.85L576.99-2.85Q579.09-2.85 580.59-3.6 582.09-4.35 583.06-5.68 584.04-7 584.49-8.72 584.94-10.45 584.94-12.4L584.94-12.4Q584.94-14.15 584.61-15.9 584.29-17.65 583.56-19.03 582.84-20.4 581.64-21.28 580.44-22.15 578.69-22.15L578.69-22.15Q577.39-22.15 576.24-21.68 575.09-21.2 574.06-20.53 573.04-19.85 572.09-19L572.09-19 572.09-3.65Q572.64-3.45 573.31-3.28 573.99-3.1 574.91-2.98 575.84-2.85 576.99-2.85ZM609.03-5.85L609.03-11.55Q608.03-11.5 607.13-11.45 606.23-11.4 605.36-11.33 604.48-11.25 603.78-11.15L603.78-11.15Q600.18-10.7 598.68-9.58 597.18-8.45 597.18-6.35L597.18-6.35Q597.18-4.6 598.26-3.73 599.33-2.85 601.08-2.85L601.08-2.85Q603.48-2.85 605.36-3.68 607.23-4.5 609.03-5.85L609.03-5.85ZM609.48 0.4L608.98-2.35Q606.63-1 604.61-0.18 602.58 0.65 600.23 0.65L600.23 0.65Q596.88 0.65 594.91-0.98 592.93-2.6 592.93-6.35L592.93-6.35Q592.93-8.3 593.93-9.75 594.93-11.2 596.56-12.18 598.18-13.15 600.23-13.7 602.28-14.25 604.43-14.4L604.43-14.4Q605.33-14.5 606.78-14.58 608.23-14.65 609.03-14.7L609.03-14.7Q609.03-16.45 608.93-17.82 608.83-19.2 608.33-20.18 607.83-21.15 606.86-21.65 605.88-22.15 604.08-22.15L604.08-22.15Q602.63-22.15 601.28-21.98 599.93-21.8 598.88-21.6L598.88-21.6Q597.63-21.35 596.58-21.05L596.58-21.05 595.78-24.5Q597.03-24.8 598.48-25.05L598.48-25.05Q599.73-25.3 601.38-25.48 603.03-25.65 604.93-25.65L604.93-25.65Q607.48-25.65 609.06-24.9 610.63-24.15 611.51-22.88 612.38-21.6 612.71-19.98 613.03-18.35 613.03-16.55L613.03-16.55 613.03-4.55Q613.03-3.85 613.06-3.08 613.08-2.3 613.16-1.55 613.23-0.8 613.33 0L613.33 0 609.48 0.4ZM620.13 0L620.13-20.15Q620.18-21.2 619.88-24.7L619.88-24.7 623.58-25.2 624.13-22Q625.63-23 627.1-23.75 628.58-24.5 630.13-25.08 631.68-25.65 633.13-25.65L633.13-25.65Q635.18-25.65 636.55-25.18 637.93-24.7 638.78-23.6 639.63-22.5 640-20.7 640.38-18.9 640.38-16.2L640.38-16.2 640.38 0 636.38 0 636.38-15.75Q636.38-17.25 636.33-18.43 636.28-19.6 635.9-20.43 635.53-21.25 634.75-21.7 633.98-22.15 632.58-22.15L632.58-22.15Q631.28-22.15 629.83-21.58 628.38-21 626.98-20.25 625.58-19.5 624.13-18.5L624.13-18.5 624.13 0 620.13 0ZM647.43 0L647.43-25.2 651.43-25.65 651.43 0 647.43 0ZM646.78-32.35L646.78-32.35Q646.78-33.5 647.55-34.27 648.33-35.05 649.48-35.05L649.48-35.05Q650.68-35.05 651.5-34.27 652.33-33.5 652.33-32.35L652.33-32.35Q652.33-31.2 651.5-30.43 650.68-29.65 649.48-29.65L649.48-29.65Q648.33-29.65 647.55-30.43 646.78-31.2 646.78-32.35ZM661.47-12.45L661.47-12.45Q661.47-7.6 663.65-5.23 665.82-2.85 669.52-2.85L669.52-2.85Q673.17-2.85 675.22-5.2 677.27-7.55 677.27-12.25L677.27-12.25Q677.27-17.25 675.1-19.7 672.92-22.15 669.17-22.15L669.17-22.15Q665.42-22.15 663.45-19.73 661.47-17.3 661.47-12.45ZM657.22-12.5L657.22-12.5Q657.22-16.3 658.42-18.82 659.62-21.35 661.47-22.88 663.32-24.4 665.45-25.03 667.57-25.65 669.47-25.65L669.47-25.65Q671.27-25.65 673.4-25.08 675.52-24.5 677.32-23.03 679.12-21.55 680.32-19.07 681.52-16.6 681.52-12.8L681.52-12.8Q681.52-8.85 680.3-6.25 679.07-3.65 677.22-2.13 675.37-0.6 673.22 0.03 671.07 0.65 669.22 0.65L669.22 0.65Q667.32 0.65 665.22 0.05 663.12-0.55 661.35-2.02 659.57-3.5 658.4-6.05 657.22-8.6 657.22-12.5ZM687.37 0L687.37-20.15Q687.42-21.2 687.12-24.7L687.12-24.7 690.82-25.2 691.37-22Q692.87-23 694.35-23.75 695.82-24.5 697.37-25.08 698.92-25.65 700.37-25.65L700.37-25.65Q702.42-25.65 703.8-25.18 705.17-24.7 706.02-23.6 706.87-22.5 707.25-20.7 707.62-18.9 707.62-16.2L707.62-16.2 707.62 0 703.62 0 703.62-15.75Q703.62-17.25 703.57-18.43 703.52-19.6 703.15-20.43 702.77-21.25 702-21.7 701.22-22.15 699.82-22.15L699.82-22.15Q698.52-22.15 697.07-21.58 695.62-21 694.22-20.25 692.82-19.5 691.37-18.5L691.37-18.5 691.37 0 687.37 0Z"
                                                                            opacity="1"
                                                                            transform="matrix(1,0,0,1,0,0)"
                                                                            fill="#5ebc67"
                                                                            class="slogan-text-1"
                                                                            data-fill-palette-color="secondary"
                                                                            id="text-1"
                                                                        ></path>
                                                                    </svg>
                                                                </g>
                                                            </svg>
                                                        </g>
                                                    </svg>
                                                </g>
                                            </svg>
                                        </g>
                                        <g transform="matrix(1,0,0,1,0,5.980042380642253)">
                                            <svg viewBox="0 0 244.43135999999996 109.2751953327808" height="109.2751953327808" width="244.43135999999996">
                                                <g>
                                                    <svg
                                                        xmlns="http://www.w3.org/2000/svg"
                                                        xml:space="preserve"
                                                        version="1.0"
                                                        viewBox="5 32.65300000000001 90.02058228862381 40.24449527900199"
                                                        x="0"
                                                        y="0"
                                                        height="109.2751953327808"
                                                        width="244.43135999999996"
                                                        class="icon-icon-0"
                                                        data-fill-palette-color="accent"
                                                        id="icon-0"
                                                    >
                                                        <path
                                                            d="M79.831 68.229c-1.856-2.528-4.197-4.547-6.745-6.347-1.355-0.954-2.818-1.743-4.122-2.777a138 138 0 0 0-4.228-3.216c-3.878-2.849-7.881-5.52-11.81-8.298-1.639-1.16-2.377-2.861-2.487-4.833-0.047-0.854 0.358-1.18 1.245-1.098 0.8 0.075 1.592 0.199 2.359 0.443 1.374 0.439 2.775 0.727 4.225 0.736 0.71 0.004 1.387-0.165 1.971-0.547a12.1 12.1 0 0 0 3.421-3.343c0.021-0.028-0.018-0.097-0.042-0.201-0.955 0-1.923 0.015-2.89-0.008-0.341-0.008-0.562 0.118-0.789 0.354-0.628 0.655-1.415 1.052-2.281 1.284-1.757 0.468-3.396-0.014-5.188-0.659 1.573-0.155 3.113 0.316 4.447-1.005-1.141 0-2.099-0.036-3.055 0.009-0.949 0.046-1.727 0.779-2.732 0.698 1.096 0.722 2.148 1.433 3.104 2.31-0.525-0.064-1.012-0.284-1.512-0.312-0.753-0.044-1.198-0.495-1.646-0.99-0.11-0.125-0.206-0.26-0.315-0.385-0.95-1.081-1.79-2.261-2.91-3.186-0.203-0.167-0.373-0.441-0.757-0.253 1.011 1.257 1.712 2.691 2.523 4.06l-0.107 0.142c-0.983-0.067-1.759-0.45-2.381-1.14a4.5 4.5 0 0 1-0.405-0.525c-0.428-0.644-0.781-1.35-1.252-1.938-0.657-0.823-1.261-1.68-1.884-2.524-0.212-0.287-0.483-0.44-0.8-0.555-0.984-0.359-1.974-0.706-2.949-1.087-1.347-0.528-2.72-0.375-4.094-0.192-0.948 0.126-1.432 0.768-1.328 1.838 0.08 0.827 0.145 1.668 0.015 2.488-0.135 0.854 0.009 1.665 0.254 2.453 0.449 1.447 0.96 2.875 1.461 4.307 0.567 1.62 1.179 3.238 2.154 4.649 2.021 2.925 4.33 5.624 7.04 7.932 3.181 2.712 6.453 5.316 9.66 7.999 1.868 1.564 3.724 3.151 5.282 5.041 0.695 0.841 1.312 1.719 1.176 2.914 0.264 0.02 0.482 0.049 0.701 0.051q2.66 0.04 5.32 0.069c0.797 0.009 0.841-0.057 0.737-0.854-0.044-0.335-0.169-0.638-0.313-0.938-0.276-0.578-0.651-1.089-1.051-1.588-1.42-1.766-3.211-3.131-4.963-4.527-3.829-3.054-7.713-6.038-11.554-9.077-1.454-1.148-2.969-2.231-4.256-3.577-1.34-1.402-2.589-2.883-3.822-4.382-0.966-1.173-1.628-2.455-2.069-3.916-0.446-1.478-0.25-2.844 0.287-4.205 0.361-0.912 1.044-1.201 1.994-0.916a63 63 0 0 1 2.363 0.762c0.798 0.277 1.584 0.589 2.376 0.885-0.238 0.11-0.452 0.109-0.667 0.11-1.404 0.009-1.683 0.248-2.115 1.583-0.216 0.667-0.066 1.253 0.205 1.836 0.222 0.478 0.473 0.94 0.736 1.393 1.135 1.954 2.487 3.759 4.263 5.153 5.768 4.527 11.819 8.676 17.646 13.125 1.673 1.278 3.352 2.546 4.804 4.082 1.371 1.45 2.688 2.941 2.78 5.204l6.034 0.001c0.771 0 0.81-0.046 0.684-0.8-0.233-1.399-0.929-2.592-1.748-3.712M27.882 67.337c-0.868-1.695-1.802-3.356-2.637-5.066-1.553-3.185-2.857-6.423-3.188-10.032-0.317-3.458 0.062-6.784 1.013-10.085 0.265-0.919 0.608-1.811 0.965-2.693-0.429-0.228-0.681 0.027-0.957 0.199-1.291 0.807-2.471 1.781-3.762 2.578a9.96 9.96 0 0 0-3.213 3.156c-0.5 0.779-1.196 1.421-1.587 2.276 0.328 0.019 0.531-0.187 0.731-0.382l0.079-0.075 0.007-0.006 0.097-0.084c1.523-1.199 2.894-2.573 4.359-3.837 0.212-0.183 0.391-0.445 0.702-0.469 0.167 0.312-0.071 0.403-0.195 0.516-1.853 1.672-3.472 3.564-5.132 5.42-1.143 1.279-2.292 2.567-3.66 3.609a12.2 12.2 0 0 0-2.572 2.66c-1.256 1.759-2.572 3.477-3.879 5.234 0.116 0.021 0.185 0.057 0.217 0.035a9 9 0 0 0 0.541-0.382c2.885-2.15 5.309-4.757 7.506-7.586 1.034-1.33 2.057-2.668 3.085-4.002l0.15 0.24q-1.178 1.896-2.358 3.791c-2.244 3.599-4.719 7.019-7.659 10.093A50 50 0 0 1 5 63.96v4.642c0.294-0.461 0.581-0.926 0.939-1.339 1.563-1.798 3.013-3.681 4.261-5.712 2.3-3.738 4.321-7.63 6.284-11.551 0.727-1.454 1.519-2.869 2.468-4.192l0.168 0.119c-0.278 0.572-0.585 1.132-0.827 1.717-1.367 3.314-2.791 6.604-3.949 10.002a53 53 0 0 1-2.182 5.453 5.3 5.3 0 0 0-0.442 1.5c-0.064 0.438-0.121 0.876-0.191 1.313-0.36 2.238-1.165 4.258-2.872 5.833-0.028 0.025-0.009 0.103-0.016 0.232 2.052 0 4.098-0.01 6.145 0.01 0.356 0.002 0.558-0.168 0.76-0.409 0.832-0.998 1.198-2.165 1.267-3.441 0.078-1.416-0.065-2.823-0.238-4.225-0.223-1.812-0.434-3.588 0.042-5.423 0.566-2.189 0.693-4.478 1.371-6.65 0.729-2.342 1.339-4.728 2.342-6.978 0.444-0.995 0.936-1.968 1.597-2.872 0.226 0.371-0.021 0.637-0.126 0.898-0.944 2.313-1.51 4.731-1.947 7.179-0.44 2.467-0.319 4.971-0.379 7.461-0.005 0.164 0.025 0.333 0.065 0.492 0.294 1.18 0.582 2.36 0.897 3.534 0.538 1.998 1.313 3.925 1.798 5.938 0.369 1.529 0.609 3.061-0.488 4.437-0.016 0.021 0.029 0.089 0.064 0.188 1.921 0 3.86-0.002 5.798 0 0.842 0 0.985-0.112 1.191-0.912 0.091-0.354 0.11-0.703 0.061-1.068-0.135-1.001-0.525-1.915-0.979-2.799"
                                                            fill="#5ebc67"
                                                            data-fill-palette-color="accent"
                                                        ></path>
                                                        <path
                                                            d="M14.505 47.684l0.004-0.002q0.004-0.006 0.006-0.013l-0.024-0.001q0.008 0.01 0.014 0.016M14.489 47.78a0.05 0.05 0 0 0 0.027-0.015q0.005-0.008 0.006-0.016l0.004-0.008q0.001-0.011-0.004-0.024v-0.002a0.1 0.1 0 0 0-0.017-0.031l-0.111 0.059c0.032 0.014 0.069 0.046 0.095 0.037M94.996 72.358c-0.134-0.822-0.309-1.646-0.669-2.385-0.715-1.457-0.714-2.984-0.605-4.536 0.098-1.437 0.137-2.876 0.106-4.316-0.011-0.475-0.161-0.83-0.455-1.193-1.201-1.482-2.36-2.999-3.562-4.482-0.549-0.676-1.029-1.415-1.674-2.03-0.17 0.218-0.098 0.416-0.115 0.597-0.113 1.188-0.621 1.615-1.799 1.517-0.701-0.059-1.341-0.321-1.963-0.614-1.42-0.674-2.814-1.403-4.243-2.053-2.938-1.337-5.987-2.395-9.04-3.432-1.293-0.439-2.254-1.133-2.639-2.489a1.04 1.04 0 0 0-0.496-0.633c-0.201-0.118-0.448-0.202-0.509-0.342l3.376-7.15c-1.094 0-2.034 0.027-2.971-0.011-0.449-0.02-0.688 0.126-0.904 0.52-0.892 1.617-1.821 3.212-2.735 4.815-0.429 0.754-0.427 0.756-1.248 0.6-0.733-0.14-1.468-0.263-2.195-0.432-0.467-0.11-0.931-0.108-1.401-0.118-0.447-0.011-0.789 0.171-1.095 0.546 0.602 0.529 1.265 0.921 1.912 1.32 1.688 1.037 3.335 2.132 5.195 2.886 1.421 0.575 2.883 1.149 3.908 2.407 1.493 1.832 3.358 3.294 4.998 4.98 0.623 0.639 1.344 1.131 2.112 1.586 3.688 2.178 6.92 4.863 9.288 8.484 1.23 1.878 2.371 3.801 2.609 6.104 0.037 0.342 0.277 0.286 0.488 0.289 1.965 0.034 3.931 0.049 5.897 0.104 0.465 0.011 0.491-0.161 0.429-0.539M54.489 70.436c-0.393-0.672-0.874-1.279-1.397-1.853-1.945-2.135-4.142-4.001-6.318-5.89-2.931-2.541-5.87-5.068-8.34-8.087-1.545-1.89-3-3.821-3.961-6.093-1.001-2.362-1.873-4.776-2.836-7.153-0.156-0.385-0.215-0.795-0.241-1.214a96 96 0 0 0-0.246-2.977c-0.134-1.453 0.144-2.857 0.993-4.1 0.071-0.104 0.208-0.199 0.026-0.416-0.574 0.348-1.144 0.726-1.743 1.05-1.08 0.583-1.652 1.503-1.872 2.677a6 6 0 0 0-0.066 0.493c-0.128 1.469 0.049 2.929 0.097 4.393 0.043 1.358 0.395 2.611 0.89 3.852 0.685 1.716 1.314 3.455 2.026 5.161 0.66 1.579 1.407 3.119 2.393 4.533 1.893 2.716 4.119 5.139 6.471 7.454 1.936 1.902 3.942 3.736 5.754 5.764 0.666 0.743 1.309 1.509 1.763 2.401 0.289 0.562 0.55 1.152 0.174 2.003l5.953 0.001c0.95 0 1.15-0.259 0.866-1.177a4 4 0 0 0-0.386-0.822"
                                                            fill="#5ebc67"
                                                            data-fill-palette-color="accent"
                                                        ></path>
                                                        <path
                                                            d="M40.693 68.826c-1.387-1.98-3.098-3.687-4.675-5.506-1.994-2.303-3.959-4.629-5.462-7.297-1.274-2.268-2.245-4.674-3.066-7.134-0.411-1.227-0.876-2.445-1.053-3.739-0.343-2.495-0.056-4.972 0.176-7.454 0.037-0.406 0.385-0.716 0.32-1.14-0.166-0.012-0.247 0.06-0.334 0.128-1.083 0.876-1.681 2.035-1.933 3.377-0.179 0.951-0.301 1.913-0.464 2.867-0.289 1.676-0.39 3.368-0.132 5.045a32.4 32.4 0 0 0 2.979 9.44c1.459 2.971 3.378 5.637 5.292 8.312 0.851 1.191 1.749 2.353 2.385 3.682 0.416 0.866 0.657 1.756 0.115 2.868 2.151 0 4.144 0.002 6.136-0.001 0.671-0.001 0.8-0.138 0.822-0.815 0.013-0.397-0.084-0.771-0.237-1.13a8.6 8.6 0 0 0-0.869-1.503M71.833 47.306c0.773 0.395 1.508 0.218 2.203-0.185 0.762-0.442 1.548-0.875 1.81-1.83 0.466-1.7 0.935-3.4 1.426-5.094 0.089-0.305 0.037-0.512-0.14-0.758-0.295-0.412-0.622-0.656-1.172-0.582a5 5 0 0 1-1.242-0.001c-0.492-0.055-0.721 0.117-0.894 0.597-0.66 1.84-1.381 3.659-2.062 5.49-0.255 0.684-0.573 1.315-1.215 1.831 0.433 0.303 0.894 0.333 1.286 0.532M75.627 48.175c-0.339-0.013-0.673-0.048-1.143 0.084 1.777 0.556 3.368 1.229 4.993 1.81 0.727 0.26 1.475 0.461 2.268 0.428 1.087-0.045 1.682-0.532 1.908-1.598 0.04-0.19 0.04-0.388 0.092-0.574 0.079-0.294 0.012-0.53-0.178-0.767-1.093-1.355-2.172-2.72-3.32-4.162-0.167 0.28-0.178 0.5-0.217 0.715-0.146 0.816-0.274 1.636-0.566 2.416-0.392 1.042-1.163 1.586-2.26 1.651-0.523 0.033-1.052 0.02-1.577-0.003M20.285 39.799c0.846-0.351 1.47-0.783 2.139-1.166-1.112-0.438-1.578 0.286-2.139 1.166"
                                                            fill="#5ebc67"
                                                            data-fill-palette-color="accent"
                                                        ></path>
                                                    </svg>
                                                </g>
                                            </svg>
                                        </g>
                                    </svg>
                                </g>
                                <defs></defs>
                            </svg>
                            <rect width="395.52" height="70.29957913583115" fill="none" stroke="none" visibility="hidden"></rect>
                        </g>
                    </svg>
                </g>
            </svg>