<svg width="64" height="64" viewBox="0 0 64 64" fill="none" xmlns="http://www.w3.org/2000/svg">
<path fill-rule="evenodd" clip-rule="evenodd" d="M12.246 1.32249C12.8089 0.848393 13.5069 0.563787 14.2408 0.509122C14.9747 0.454457 15.7071 0.632515 16.334 1.01799C28.43 8.46249 35.059 17.881 38.594 28.248C39.469 30.8135 40.1515 33.428 40.68 36.074C44.2815 30.019 50.0355 25.217 58.7015 21.752C59.3125 21.508 59.98 21.4411 60.6273 21.5592C61.2746 21.6772 61.8755 21.9753 62.3611 22.4192C62.8467 22.8632 63.1974 23.435 63.3728 24.0692C63.5482 24.7033 63.5414 25.3741 63.353 26.0045L62.7195 28.1185C57.9595 43.9665 56.5 48.821 56.5 60C56.5 60.9282 56.1313 61.8185 55.4749 62.4749C54.8185 63.1312 53.9283 63.5 53 63.5H11C10.0717 63.5 9.1815 63.1312 8.52513 62.4749C7.86875 61.8185 7.5 60.9282 7.5 60C7.5 46.476 5.848 38.1075 0.678501 22.606C0.468113 21.9729 0.443019 21.293 0.606176 20.6461C0.769333 19.9993 1.11394 19.4126 1.59942 18.955C2.08489 18.4975 2.691 18.1883 3.34636 18.0637C4.00172 17.9391 4.67903 18.0045 5.2985 18.252C10.181 20.2015 13.891 22.8055 16.691 25.882C15.754 18.8199 13.9265 11.9049 11.252 5.30199C10.978 4.61844 10.9265 3.86586 11.105 3.15137C11.2834 2.43688 11.6827 1.79689 12.246 1.32249Z" fill="#FAFAFA"/>
</svg>
