<svg width="200" height="36" viewBox="0 0 200 36" fill="none" xmlns="http://www.w3.org/2000/svg">
<g clip-path="url(#clip0_69_307)">
<g clip-path="url(#clip1_69_307)">
<g clip-path="url(#clip2_69_307)">
<g clip-path="url(#clip3_69_307)">
<path d="M78.7567 1.99643C78.7567 0.893834 78.3138 0 77.7676 0C77.2213 0 76.7785 0.893834 76.7785 1.99643V33.4881C76.7785 34.5907 77.2213 35.4846 77.7676 35.4846C78.3138 35.4846 78.7567 34.5907 78.7567 33.4881V1.99643Z" fill="#FAFAFA"/>
<g clip-path="url(#clip4_69_307)">
<g clip-path="url(#clip5_69_307)">
<g clip-path="url(#clip6_69_307)">
<g clip-path="url(#clip7_69_307)">
<path d="M83.9413 21.5648L87.7348 0.547158C87.7552 0.465575 87.8062 0.424784 87.8878 0.424784H92.3238C92.4054 0.424784 92.4564 0.465575 92.4768 0.547158L96.1174 21.5648C96.1378 21.6668 96.097 21.7178 95.995 21.7178H92.5992C92.5176 21.7178 92.4666 21.6668 92.4462 21.5648L92.1097 19.3315H87.949L87.6125 21.5648C87.5921 21.6668 87.5411 21.7178 87.4595 21.7178H84.0636C83.982 21.7178 83.9413 21.6668 83.9413 21.5648ZM89.9376 7.46126L88.5609 16.058H91.4978L90.2435 7.46126L90.0599 6.32931L89.9376 7.46126ZM103.001 22.0237C101.9 22.0237 100.9 21.7484 100.003 21.1977C99.1054 20.647 98.3854 19.9067 97.8429 18.9766C97.3044 18.0507 97.0352 17.0166 97.0352 15.8744V6.17634C97.0352 5.07498 97.3044 4.05928 97.8429 3.12924C98.3854 2.20328 99.1095 1.46496 100.015 0.914277C100.925 0.363596 101.92 0.0882568 103.001 0.0882568C104.123 0.0882568 105.136 0.359517 106.042 0.90204C106.952 1.44048 107.672 2.16861 108.202 3.08641C108.732 4.00421 108.997 5.03419 108.997 6.17634V7.58364C108.997 7.66522 108.946 7.70601 108.844 7.70601H105.418C105.336 7.70601 105.295 7.66522 105.295 7.58364V6.42109C105.295 5.64605 105.075 5.00359 104.635 4.4937C104.198 3.98381 103.654 3.72887 103.001 3.72887C102.409 3.72887 101.883 3.97362 101.422 4.46311C100.965 4.9526 100.737 5.52368 100.737 6.17634V15.8744C100.737 16.5475 100.961 17.1227 101.41 17.5999C101.859 18.0812 102.389 18.3219 103.001 18.3219C103.654 18.3219 104.198 18.0874 104.635 17.6183C105.075 17.1492 105.295 16.5679 105.295 15.8744V14.3754H103.154C103.052 14.3754 103.001 14.3244 103.001 14.2224V10.7959C103.001 10.694 103.052 10.643 103.154 10.643H108.875C108.956 10.643 108.997 10.694 108.997 10.7959V15.8744C108.997 17.0166 108.726 18.0507 108.183 18.9766C107.645 19.9067 106.927 20.647 106.03 21.1977C105.132 21.7484 104.123 22.0237 103.001 22.0237ZM114.749 21.7178H111.292C111.21 21.7178 111.169 21.6668 111.169 21.5648L111.231 0.547158C111.231 0.465575 111.269 0.424784 111.347 0.424784H117.533C118.634 0.424784 119.648 0.694005 120.574 1.23245C121.504 1.77497 122.244 2.49901 122.795 3.40458C123.346 4.31422 123.621 5.34012 123.621 6.48227C123.621 7.23691 123.507 7.91404 123.278 8.51367C123.058 9.11738 122.795 9.62931 122.489 10.0495C122.183 10.4655 121.908 10.7755 121.663 10.9795C122.764 12.2032 123.315 13.6411 123.315 15.2932L123.346 21.5648C123.346 21.6668 123.295 21.7178 123.193 21.7178H119.736C119.65 21.7178 119.607 21.6872 119.607 21.626V15.2932C119.607 14.5589 119.348 13.9205 118.83 13.378C118.312 12.8396 117.676 12.5704 116.921 12.5704H114.902L114.865 21.5648C114.865 21.6668 114.826 21.7178 114.749 21.7178ZM114.902 4.09599V8.89915H117.533C118.165 8.89915 118.726 8.6646 119.215 8.1955C119.705 7.7264 119.95 7.15533 119.95 6.48227C119.95 5.82962 119.709 5.26874 119.228 4.79964C118.75 4.33054 118.185 4.09599 117.533 4.09599H114.902ZM129.519 21.7178H126.062C125.96 21.7178 125.909 21.6668 125.909 21.5648L125.94 0.547158C125.94 0.465575 125.981 0.424784 126.062 0.424784H129.489C129.57 0.424784 129.611 0.465575 129.611 0.547158L129.642 21.5648C129.642 21.6668 129.601 21.7178 129.519 21.7178ZM138.85 21.7178H135.148C135.067 21.7178 135.016 21.6668 134.995 21.5648L131.385 0.547158C131.365 0.465575 131.396 0.424784 131.477 0.424784H134.904C134.985 0.424784 135.036 0.465575 135.057 0.547158L137.015 14.3754L139.034 0.547158C139.054 0.465575 139.115 0.424784 139.217 0.424784H141.971C142.052 0.424784 142.103 0.465575 142.124 0.547158L144.112 14.3754L146.101 0.547158C146.121 0.465575 146.172 0.424784 146.254 0.424784H149.65C149.752 0.424784 149.793 0.465575 149.772 0.547158L146.131 21.5648C146.111 21.6056 146.081 21.6403 146.04 21.6688C145.999 21.7015 145.979 21.7178 145.979 21.7178H142.277C142.216 21.7178 142.165 21.6668 142.124 21.5648L140.563 10.5818L139.003 21.5648C138.983 21.6668 138.932 21.7178 138.85 21.7178ZM149.252 21.5648L153.046 0.547158C153.066 0.465575 153.117 0.424784 153.199 0.424784H157.635C157.716 0.424784 157.767 0.465575 157.788 0.547158L161.428 21.5648C161.449 21.6668 161.408 21.7178 161.306 21.7178H157.91C157.828 21.7178 157.777 21.6668 157.757 21.5648L157.42 19.3315H153.26L152.923 21.5648C152.903 21.6668 152.852 21.7178 152.77 21.7178H149.374C149.293 21.7178 149.252 21.6668 149.252 21.5648ZM155.248 7.46126L153.872 16.058H156.809L155.554 7.46126L155.371 6.32931L155.248 7.46126ZM168.403 21.7178H164.946C164.865 21.7178 164.824 21.6668 164.824 21.5648V4.12658H160.847C160.745 4.12658 160.694 4.07559 160.694 3.97362L160.725 0.547158C160.725 0.465575 160.765 0.424784 160.847 0.424784H172.472C172.574 0.424784 172.625 0.465575 172.625 0.547158V3.97362C172.625 4.07559 172.585 4.12658 172.503 4.12658H168.495L168.526 21.5648C168.526 21.6668 168.485 21.7178 168.403 21.7178ZM179.442 22.0237C178.32 22.0237 177.306 21.7423 176.401 21.1793C175.491 20.6205 174.771 19.872 174.241 18.9338C173.71 17.9956 173.445 16.9452 173.445 15.7827L173.476 6.23753C173.476 5.11577 173.737 4.08987 174.259 3.15983C174.777 2.23387 175.491 1.48943 176.401 0.926515C177.306 0.367676 178.32 0.0882568 179.442 0.0882568C180.563 0.0882568 181.573 0.363596 182.47 0.914277C183.368 1.46496 184.082 2.20328 184.612 3.12924C185.142 4.05928 185.407 5.09537 185.407 6.23753V7.64482C185.407 7.7264 185.366 7.7672 185.285 7.7672H181.858C181.777 7.7672 181.736 7.7264 181.736 7.64482V6.23753C181.736 5.56447 181.518 4.9832 181.081 4.4937C180.641 4.00421 180.094 3.75946 179.442 3.75946C178.707 3.75946 178.146 4.00829 177.759 4.50594C177.371 5.00767 177.178 5.58487 177.178 6.23753V15.7827C177.178 16.5373 177.398 17.1492 177.838 17.6183C178.275 18.0874 178.809 18.3219 179.442 18.3219C180.094 18.3219 180.641 18.0609 181.081 17.5387C181.518 17.0207 181.736 16.4353 181.736 15.7827V14.3754C181.736 14.2938 181.777 14.253 181.858 14.253H185.316C185.397 14.253 185.438 14.2938 185.438 14.3754V15.7827C185.438 16.9452 185.169 17.9956 184.63 18.9338C184.088 19.872 183.368 20.6205 182.47 21.1793C181.573 21.7423 180.563 22.0237 179.442 22.0237ZM191.251 21.7178H187.794C187.712 21.7178 187.671 21.6668 187.671 21.5648L187.702 0.547158C187.702 0.465575 187.753 0.424784 187.855 0.424784H191.251C191.353 0.424784 191.404 0.465575 191.404 0.547158L191.373 8.86856H195.962V0.547158C195.962 0.465575 196.003 0.424784 196.084 0.424784H199.48C199.582 0.424784 199.633 0.465575 199.633 0.547158L199.694 21.5648C199.694 21.6668 199.643 21.7178 199.541 21.7178H196.115C196.013 21.7178 195.962 21.6668 195.962 21.5648V12.5704H191.373V21.5648C191.373 21.6668 191.332 21.7178 191.251 21.7178Z" fill="#FAFAFA"/>
</g>
</g>
<g clip-path="url(#clip8_69_307)">
<g clip-path="url(#clip9_69_307)">
<mask id="path-3-inside-1_69_307" fill="white">
<path d="M85.7262 33.4071V31.377L83.9417 27.8243H84.7029L86.07 30.5338L87.4452 27.8243H88.2065L86.422 31.377V33.4071H85.7262ZM88.9269 31.3688C88.9269 31.8981 89.0453 32.2922 89.2821 32.5508C89.5201 32.8106 89.841 32.9405 90.2448 32.9405C90.6432 32.9405 90.9543 32.8122 91.178 32.5557C91.4018 32.2993 91.5136 31.9145 91.5136 31.4015C91.5136 30.8558 91.3947 30.4492 91.1567 30.1818C90.9199 29.9144 90.5968 29.7807 90.1875 29.7807C89.7782 29.7807 89.4655 29.9128 89.2494 30.1769C89.0344 30.4421 88.9269 30.8394 88.9269 31.3688ZM88.2311 31.3606C88.2311 30.9458 88.2966 30.6009 88.4275 30.3259C88.5585 30.0498 88.725 29.8282 88.9269 29.6612C89.1288 29.4953 89.3455 29.378 89.5768 29.3092C89.8093 29.2415 90.0293 29.2077 90.2366 29.2077C90.4331 29.2077 90.647 29.2388 90.8784 29.301C91.1109 29.3643 91.3254 29.4762 91.5218 29.6366C91.7183 29.7982 91.882 30.0143 92.013 30.285C92.144 30.5546 92.2094 30.8967 92.2094 31.3115C92.2094 31.7426 92.1423 32.1001 92.0081 32.3838C91.8749 32.6676 91.7074 32.8925 91.5054 33.0584C91.3035 33.2254 91.0852 33.3432 90.8506 33.412C90.6159 33.4797 90.3976 33.5135 90.1957 33.5135C89.9883 33.5135 89.77 33.4808 89.5408 33.4153C89.3116 33.3498 89.0999 33.2368 88.9056 33.0764C88.7124 32.9148 88.5514 32.6949 88.4226 32.4166C88.2949 32.1383 88.2311 31.7863 88.2311 31.3606ZM95.6721 33.4726L95.623 32.9569H95.605C95.5569 32.9951 95.4865 33.0453 95.3938 33.1075C95.301 33.1708 95.194 33.2324 95.0729 33.2925C94.9539 33.3525 94.8218 33.4044 94.6767 33.448C94.5315 33.4917 94.3858 33.5135 94.2395 33.5135C94.0376 33.5135 93.8652 33.4878 93.7222 33.4366C93.5814 33.3842 93.4673 33.2979 93.38 33.1779C93.2927 33.0578 93.2294 32.8996 93.1901 32.7031C93.153 32.5066 93.1344 32.2611 93.1344 31.9664V29.2896H93.7893V31.8681C93.7893 32.0318 93.7921 32.1792 93.7975 32.3102C93.8019 32.4411 93.821 32.553 93.8548 32.6458C93.8876 32.7386 93.9405 32.8106 94.0136 32.8619C94.0878 32.9143 94.1932 32.9405 94.3296 32.9405C94.4704 32.9405 94.6177 32.9105 94.7716 32.8504C94.9244 32.7904 95.0636 32.7222 95.1891 32.6458C95.3365 32.5585 95.4811 32.4602 95.623 32.3511V29.2896H96.2778V32.875C96.2833 33.0715 96.2969 33.2488 96.3188 33.4071L95.6721 33.4726ZM97.4714 33.4071V29.9526C97.4714 29.8271 97.4577 29.6306 97.4304 29.3632L98.0362 29.2814L98.1017 29.8789H98.1099C98.2081 29.7534 98.3036 29.6443 98.3964 29.5515C98.4891 29.4587 98.5863 29.378 98.6878 29.3092C98.7882 29.2415 98.8848 29.2077 98.9776 29.2077C99.1031 29.2022 99.2777 29.2159 99.5015 29.2486L99.3541 29.8789C99.174 29.8462 99.0485 29.8326 98.9776 29.838C98.8848 29.838 98.7866 29.8817 98.6829 29.969C98.5792 30.0563 98.4891 30.1491 98.4127 30.2473C98.3145 30.3674 98.219 30.5038 98.1262 30.6566V33.4071H97.4714ZM102.227 33.4071V27.8243H102.915V32.7522H105.453V33.4071H102.227ZM108.473 32.4493V31.5161C108.364 31.5216 108.26 31.527 108.161 31.5325C108.063 31.538 107.967 31.5445 107.871 31.5522C107.776 31.5609 107.69 31.5707 107.614 31.5816C107.221 31.6307 106.942 31.7164 106.779 31.8387C106.615 31.962 106.533 32.1383 106.533 32.3675C106.533 32.5585 106.592 32.7015 106.708 32.7964C106.826 32.8925 106.981 32.9405 107.172 32.9405C107.434 32.9405 107.667 32.8952 107.871 32.8046C108.076 32.7151 108.277 32.5967 108.473 32.4493ZM108.547 33.4726L108.465 33.0223C108.207 33.1697 107.968 33.2881 107.748 33.3776C107.527 33.4682 107.289 33.5135 107.033 33.5135C106.666 33.5135 106.375 33.4245 106.16 33.2466C105.945 33.0698 105.837 32.7768 105.837 32.3675C105.837 32.1546 105.892 31.9691 106.001 31.8108C106.11 31.6526 106.253 31.52 106.43 31.413C106.608 31.3071 106.809 31.2242 107.033 31.1641C107.256 31.1041 107.485 31.0659 107.72 31.0495C107.818 31.0386 107.947 31.0288 108.105 31.0201C108.263 31.0124 108.386 31.0059 108.473 31.0004C108.473 30.8094 108.468 30.6391 108.457 30.4896C108.446 30.339 108.413 30.2102 108.359 30.1032C108.304 29.9974 108.223 29.9171 108.116 29.8626C108.009 29.808 107.858 29.7807 107.663 29.7807C107.503 29.7807 107.351 29.79 107.204 29.8085C107.057 29.8282 106.926 29.8489 106.81 29.8708C106.673 29.898 106.548 29.9281 106.435 29.9608L106.304 29.396C106.44 29.3632 106.588 29.3332 106.746 29.3059C106.882 29.2786 107.04 29.2552 107.219 29.2355C107.4 29.217 107.595 29.2077 107.802 29.2077C108.08 29.2077 108.305 29.2486 108.477 29.3305C108.649 29.4123 108.783 29.5226 108.878 29.6612C108.974 29.8009 109.039 29.9592 109.074 30.136C109.11 30.3139 109.128 30.5011 109.128 30.6975V32.6622C109.128 32.7386 109.129 32.8188 109.131 32.9028C109.135 32.988 109.14 33.0715 109.148 33.1533C109.156 33.2352 109.166 33.3198 109.177 33.4071L108.547 33.4726ZM110.289 33.4071V30.1082C110.294 29.9936 110.281 29.7452 110.248 29.3632L110.854 29.2814L110.944 29.8053C111.107 29.6961 111.27 29.6006 111.432 29.5188C111.592 29.4369 111.757 29.3643 111.926 29.301C112.095 29.2388 112.259 29.2077 112.417 29.2077C112.641 29.2077 112.828 29.2334 112.979 29.2846C113.128 29.337 113.249 29.4233 113.342 29.5433C113.435 29.6634 113.502 29.8216 113.544 30.0181C113.584 30.2146 113.604 30.4601 113.604 30.7548V33.4071H112.949V30.8285C112.949 30.6648 112.947 30.5185 112.941 30.3897C112.936 30.262 112.913 30.1529 112.872 30.0623C112.831 29.9728 112.768 29.9035 112.684 29.8544C112.599 29.8053 112.48 29.7807 112.327 29.7807C112.185 29.7807 112.035 29.8118 111.877 29.874C111.719 29.9373 111.563 30.0099 111.41 30.0918C111.258 30.1736 111.102 30.2691 110.944 30.3783V33.4071H110.289ZM117.329 32.5066V29.9035C117.132 29.8489 116.98 29.8146 116.87 29.8004C116.761 29.7873 116.649 29.7807 116.535 29.7807C116.306 29.7807 116.109 29.8216 115.945 29.9035C115.782 29.9854 115.647 30.0983 115.541 30.2424C115.434 30.3876 115.356 30.554 115.307 30.7417C115.258 30.9306 115.233 31.1314 115.233 31.3442C115.233 31.5352 115.254 31.7262 115.295 31.9172C115.336 32.1082 115.4 32.2802 115.487 32.433C115.574 32.5858 115.681 32.7085 115.806 32.8013C115.932 32.8941 116.082 32.9405 116.256 32.9405C116.376 32.9405 116.501 32.9187 116.63 32.875C116.757 32.8313 116.876 32.7811 116.985 32.7244C117.094 32.6665 117.209 32.5939 117.329 32.5066ZM117.402 33.4726L117.337 33.0796C117.211 33.167 117.09 33.239 116.974 33.2958C116.856 33.3536 116.727 33.4044 116.589 33.448C116.449 33.4917 116.314 33.5135 116.183 33.5135C115.67 33.5135 115.268 33.3318 114.976 32.9683C114.684 32.606 114.537 32.0755 114.537 31.377C114.537 30.9622 114.604 30.6157 114.739 30.3374C114.872 30.059 115.039 29.8364 115.241 29.6694C115.443 29.5035 115.66 29.3851 115.893 29.3141C116.124 29.2432 116.338 29.2077 116.535 29.2077C116.633 29.2077 116.737 29.2142 116.846 29.2273C116.955 29.2415 117.116 29.2759 117.329 29.3305V27.2758L117.984 27.2021V32.6622C117.984 32.7386 117.985 32.8188 117.989 32.9028C117.991 32.988 117.996 33.0715 118.005 33.1533C118.013 33.2352 118.022 33.3198 118.033 33.4071L117.402 33.4726ZM119.072 29.2077V27.2021H119.727V29.2077H119.072ZM123.149 29.3796L123.034 29.9608C122.805 29.8899 122.602 29.8418 122.424 29.8167C122.247 29.7927 122.085 29.7807 121.937 29.7807C121.746 29.7807 121.587 29.8271 121.458 29.9199C121.33 30.0127 121.266 30.1327 121.266 30.2801C121.272 30.411 121.329 30.5229 121.438 30.6157C121.547 30.7085 121.674 30.7914 121.818 30.8645C121.963 30.9388 122.124 31.0195 122.301 31.1068C122.479 31.1942 122.645 31.2924 122.8 31.4015C122.956 31.5107 123.083 31.6417 123.182 31.7945C123.28 31.9473 123.332 32.1301 123.337 32.3429C123.332 32.5721 123.281 32.7615 123.185 32.911C123.09 33.0616 122.967 33.1817 122.817 33.2712C122.667 33.3618 122.505 33.4251 122.33 33.4611C122.156 33.496 121.992 33.5135 121.839 33.5135C121.643 33.5135 121.439 33.5026 121.229 33.4808C121.019 33.4589 120.794 33.4125 120.554 33.3416L120.677 32.7522C120.922 32.8177 121.146 32.8652 121.348 32.8946C121.55 32.9252 121.716 32.9405 121.847 32.9405C121.946 32.9405 122.042 32.9296 122.137 32.9077C122.233 32.8859 122.319 32.8543 122.396 32.8128C122.472 32.7724 122.533 32.7195 122.579 32.654C122.626 32.5885 122.65 32.5148 122.65 32.433C122.644 32.2802 122.592 32.1503 122.494 32.0433C122.396 31.9374 122.269 31.8419 122.113 31.7568C121.958 31.6728 121.791 31.5882 121.613 31.503C121.436 31.419 121.27 31.3208 121.114 31.2083C120.959 31.097 120.83 30.9633 120.726 30.8072C120.622 30.6522 120.57 30.4601 120.57 30.2309C120.57 30.0672 120.612 29.921 120.696 29.7922C120.782 29.6645 120.891 29.5581 121.024 29.4729C121.158 29.3889 121.305 29.3234 121.466 29.2765C121.627 29.2306 121.785 29.2077 121.937 29.2077C122.096 29.2077 122.273 29.2197 122.47 29.2437C122.666 29.2688 122.892 29.3141 123.149 29.3796ZM126.225 33.4071V27.8243H126.913V33.4071H126.225ZM128.231 33.4071V30.1082C128.236 29.9936 128.223 29.7452 128.19 29.3632L128.796 29.2814L128.886 29.8053C129.049 29.6961 129.211 29.6006 129.372 29.5188C129.533 29.4369 129.699 29.3643 129.868 29.301C130.037 29.2388 130.201 29.2077 130.359 29.2077C130.583 29.2077 130.77 29.2334 130.919 29.2846C131.07 29.337 131.191 29.4233 131.284 29.5433C131.377 29.6634 131.443 29.8216 131.484 30.0181C131.525 30.2146 131.546 30.4601 131.546 30.7548V33.4071H130.891V30.8285C130.891 30.6648 130.888 30.5185 130.883 30.3897C130.878 30.262 130.854 30.1529 130.813 30.0623C130.772 29.9728 130.709 29.9035 130.624 29.8544C130.54 29.8053 130.422 29.7807 130.269 29.7807C130.127 29.7807 129.977 29.8118 129.819 29.874C129.661 29.9373 129.505 30.0099 129.352 30.0918C129.199 30.1736 129.044 30.2691 128.886 30.3783V33.4071H128.231ZM135.041 29.3796L134.927 29.9608C134.698 29.8899 134.494 29.8418 134.316 29.8167C134.139 29.7927 133.977 29.7807 133.83 29.7807C133.639 29.7807 133.479 29.8271 133.35 29.9199C133.223 30.0127 133.159 30.1327 133.159 30.2801C133.164 30.411 133.221 30.5229 133.331 30.6157C133.44 30.7085 133.566 30.7914 133.71 30.8645C133.856 30.9388 134.017 31.0195 134.193 31.1068C134.371 31.1942 134.538 31.2924 134.693 31.4015C134.849 31.5107 134.976 31.6417 135.074 31.7945C135.172 31.9473 135.224 32.1301 135.23 32.3429C135.224 32.5721 135.174 32.7615 135.078 32.911C134.983 33.0616 134.86 33.1817 134.709 33.2712C134.56 33.3618 134.398 33.4251 134.223 33.4611C134.048 33.496 133.885 33.5135 133.732 33.5135C133.535 33.5135 133.332 33.5026 133.121 33.4808C132.912 33.4589 132.687 33.4125 132.447 33.3416L132.569 32.7522C132.815 32.8177 133.039 32.8652 133.241 32.8946C133.443 32.9252 133.609 32.9405 133.74 32.9405C133.838 32.9405 133.935 32.9296 134.03 32.9077C134.126 32.8859 134.212 32.8543 134.288 32.8128C134.365 32.7724 134.426 32.7195 134.472 32.654C134.519 32.5885 134.542 32.5148 134.542 32.433C134.537 32.2802 134.485 32.1503 134.387 32.0433C134.288 31.9374 134.161 31.8419 134.005 31.7568C133.85 31.6728 133.684 31.5882 133.506 31.503C133.329 31.419 133.163 31.3208 133.006 31.2083C132.851 31.097 132.722 30.9633 132.618 30.8072C132.515 30.6522 132.463 30.4601 132.463 30.2309C132.463 30.0672 132.505 29.921 132.589 29.7922C132.674 29.6645 132.783 29.5581 132.916 29.4729C133.051 29.3889 133.198 29.3234 133.358 29.2765C133.52 29.2306 133.677 29.2077 133.83 29.2077C133.988 29.2077 134.166 29.2197 134.362 29.2437C134.559 29.2688 134.785 29.3141 135.041 29.3796ZM136.112 33.4071V29.2814L136.767 29.2077V33.4071H136.112ZM136.006 28.1108C136.006 27.9853 136.048 27.8805 136.133 27.7964C136.218 27.7113 136.322 27.6687 136.448 27.6687C136.579 27.6687 136.69 27.7113 136.78 27.7964C136.87 27.8805 136.914 27.9853 136.914 28.1108C136.914 28.2363 136.87 28.3411 136.78 28.4251C136.69 28.5103 136.579 28.5528 136.448 28.5528C136.322 28.5528 136.218 28.5103 136.133 28.4251C136.048 28.3411 136.006 28.2363 136.006 28.1108ZM141.171 29.3878V33.8C141.171 34.0019 141.149 34.1984 141.106 34.3894C141.062 34.5804 140.979 34.7512 140.857 34.9018C140.733 35.0514 140.562 35.1714 140.341 35.262C140.119 35.3515 139.829 35.3963 139.468 35.3963C139.239 35.3908 139.04 35.3772 138.871 35.3553C138.702 35.3335 138.541 35.3024 138.388 35.262C138.235 35.2205 138.096 35.1725 137.97 35.1179L138.142 34.5449C138.355 34.6377 138.572 34.7086 138.794 34.7578C139.014 34.8069 139.212 34.8314 139.387 34.8314C139.578 34.8314 139.744 34.8123 139.886 34.7741C140.028 34.7359 140.147 34.6721 140.243 34.5826C140.338 34.492 140.409 34.373 140.456 34.2257C140.501 34.0783 140.524 33.8955 140.524 33.6772V33.0796C140.41 33.156 140.291 33.2254 140.169 33.2876C140.046 33.3509 139.915 33.4044 139.776 33.448C139.637 33.4917 139.501 33.5135 139.37 33.5135C138.863 33.5135 138.462 33.3345 138.167 32.9765C137.872 32.6196 137.725 32.0864 137.725 31.377C137.725 30.9677 137.789 30.625 137.918 30.3488C138.046 30.0738 138.208 29.8517 138.404 29.6825C138.601 29.5133 138.816 29.3916 139.051 29.3174C139.286 29.2443 139.509 29.2077 139.722 29.2077C140.001 29.2077 140.256 29.2306 140.488 29.2765C140.72 29.3234 140.947 29.3605 141.171 29.3878ZM139.444 32.9405C139.564 32.9405 139.687 32.9187 139.812 32.875C139.938 32.8313 140.059 32.7795 140.177 32.7195C140.294 32.6594 140.41 32.5885 140.524 32.5066V29.8953C140.459 29.8789 140.383 29.8598 140.295 29.838C140.219 29.8271 140.131 29.8146 140.033 29.8004C139.935 29.7873 139.831 29.7807 139.722 29.7807C139.493 29.7807 139.297 29.8216 139.133 29.9035C138.969 29.9854 138.834 30.0972 138.728 30.2391C138.621 30.381 138.543 30.5475 138.494 30.7385C138.445 30.9295 138.421 31.1314 138.421 31.3442C138.421 31.5352 138.441 31.7262 138.483 31.9172C138.523 32.1082 138.587 32.2802 138.674 32.433C138.762 32.5858 138.868 32.7085 138.994 32.8013C139.119 32.8941 139.269 32.9405 139.444 32.9405ZM142.35 33.4071V27.2758L143.005 27.2021V29.8053C143.168 29.6961 143.331 29.6006 143.491 29.5188C143.653 29.4369 143.818 29.3643 143.987 29.301C144.156 29.2388 144.32 29.2077 144.478 29.2077C144.702 29.2077 144.889 29.2334 145.038 29.2846C145.189 29.337 145.31 29.4233 145.403 29.5433C145.496 29.6634 145.563 29.8216 145.603 30.0181C145.644 30.2146 145.665 30.4601 145.665 30.7548V33.4071H145.01V30.8285C145.01 30.6648 145.008 30.5185 145.002 30.3897C144.997 30.262 144.973 30.1529 144.932 30.0623C144.891 29.9728 144.829 29.9035 144.743 29.8544C144.659 29.8053 144.541 29.7807 144.388 29.7807C144.246 29.7807 144.093 29.8118 143.93 29.874C143.766 29.9373 143.611 30.0099 143.463 30.0918C143.316 30.1736 143.163 30.2691 143.005 30.3783V33.4071H142.35ZM147.122 28.1435L147.777 28.0617V29.2896H148.964V29.8216H147.777V32.0073C147.777 32.1874 147.781 32.3375 147.789 32.4575C147.797 32.5776 147.815 32.6731 147.843 32.744C147.87 32.815 147.908 32.8652 147.957 32.8946C148.006 32.9252 148.069 32.9405 148.146 32.9405C148.353 32.935 148.593 32.8586 148.866 32.7113L149.062 33.2106C148.882 33.3307 148.714 33.4114 148.558 33.4529C148.403 33.4933 148.249 33.5135 148.096 33.5135C147.736 33.5135 147.484 33.4109 147.338 33.2057C147.194 33.0016 147.122 32.6622 147.122 32.1874V29.8216H146.369V29.2896H147.122V28.1435ZM150.149 33.4071V29.8216H149.388V29.2896H150.149C150.149 28.9076 150.176 28.5839 150.228 28.3187C150.279 28.0546 150.362 27.8396 150.477 27.6737C150.591 27.5067 150.739 27.3861 150.919 27.3118C151.099 27.2387 151.317 27.2021 151.574 27.2021C151.781 27.2021 151.975 27.2365 152.155 27.3053C152.335 27.373 152.48 27.4559 152.589 27.5541L152.302 28.0453C152.193 27.9634 152.08 27.898 151.963 27.8488C151.846 27.7997 151.718 27.7752 151.582 27.7752C151.402 27.7752 151.26 27.8145 151.156 27.893C151.053 27.9727 150.975 28.0808 150.924 28.2172C150.871 28.3536 150.839 28.513 150.826 28.6953C150.811 28.8786 150.804 29.0767 150.804 29.2896H151.828V29.8216H150.804V33.4071H150.149ZM155.094 33.4726L155.045 32.9569H155.028C154.979 32.9951 154.908 33.0453 154.815 33.1075C154.723 33.1708 154.616 33.2324 154.496 33.2925C154.376 33.3525 154.244 33.4044 154.1 33.448C153.955 33.4917 153.809 33.5135 153.661 33.5135C153.459 33.5135 153.287 33.4878 153.145 33.4366C153.004 33.3842 152.889 33.2979 152.802 33.1779C152.714 33.0578 152.652 32.8996 152.613 32.7031C152.575 32.5066 152.556 32.2611 152.556 31.9664V29.2896H153.211V31.8681C153.211 32.0318 153.214 32.1792 153.219 32.3102C153.225 32.4411 153.244 32.553 153.276 32.6458C153.309 32.7386 153.363 32.8106 153.437 32.8619C153.51 32.9143 153.615 32.9405 153.751 32.9405C153.893 32.9405 154.04 32.9105 154.193 32.8504C154.346 32.7904 154.485 32.7222 154.611 32.6458C154.758 32.5585 154.903 32.4602 155.045 32.3511V29.2896H155.699V32.875C155.705 33.0715 155.719 33.2488 155.74 33.4071L155.094 33.4726ZM156.886 33.4071V27.2758L157.541 27.2021V33.4071H156.886ZM164.67 28.0044L164.522 28.6101C164.386 28.5665 164.241 28.5266 164.088 28.4906C163.936 28.4557 163.768 28.4257 163.586 28.4006C163.402 28.3766 163.21 28.3646 163.008 28.3646C162.68 28.3646 162.402 28.4355 162.173 28.5774C161.944 28.7193 161.757 28.9005 161.613 29.1209C161.468 29.3425 161.363 29.5897 161.297 29.8626C161.232 30.1354 161.199 30.4056 161.199 30.673C161.199 31.0113 161.247 31.318 161.343 31.5931C161.438 31.8692 161.569 32.1039 161.736 32.2971C161.902 32.4913 162.095 32.6403 162.317 32.744C162.537 32.8477 162.77 32.8996 163.016 32.8996C163.245 32.8996 163.455 32.887 163.646 32.8619C163.837 32.8379 164.001 32.8122 164.138 32.785C164.296 32.7522 164.438 32.714 164.563 32.6703L164.702 33.2515C164.555 33.3007 164.391 33.3443 164.211 33.3825C164.058 33.4153 163.881 33.4453 163.679 33.4726C163.477 33.4999 163.256 33.5135 163.016 33.5135C162.585 33.5135 162.207 33.4426 161.883 33.3007C161.558 33.1588 161.288 32.9607 161.073 32.7064C160.857 32.4531 160.694 32.153 160.585 31.8059C160.476 31.4599 160.421 31.0795 160.421 30.6648C160.421 30.19 160.487 29.7709 160.618 29.4074C160.749 29.0451 160.929 28.7411 161.158 28.4955C161.387 28.2499 161.66 28.0644 161.976 27.9389C162.293 27.8134 162.64 27.7506 163.016 27.7506C163.245 27.7506 163.46 27.7626 163.659 27.7866C163.858 27.8117 164.041 27.8434 164.208 27.8816C164.374 27.9198 164.528 27.9607 164.67 28.0044ZM165.84 31.3688C165.84 31.8981 165.959 32.2922 166.197 32.5508C166.434 32.8106 166.754 32.9405 167.158 32.9405C167.557 32.9405 167.868 32.8122 168.091 32.5557C168.315 32.2993 168.427 31.9145 168.427 31.4015C168.427 30.8558 168.309 30.4492 168.072 30.1818C167.834 29.9144 167.51 29.7807 167.101 29.7807C166.692 29.7807 166.379 29.9128 166.164 30.1769C165.948 30.4421 165.84 30.8394 165.84 31.3688ZM165.144 31.3606C165.144 30.9458 165.21 30.6009 165.341 30.3259C165.472 30.0498 165.638 29.8282 165.84 29.6612C166.042 29.4953 166.259 29.378 166.492 29.3092C166.723 29.2415 166.943 29.2077 167.15 29.2077C167.346 29.2077 167.561 29.2388 167.793 29.301C168.025 29.3643 168.239 29.4762 168.435 29.6366C168.632 29.7982 168.795 30.0143 168.926 30.285C169.057 30.5546 169.123 30.8967 169.123 31.3115C169.123 31.7426 169.056 32.1001 168.923 32.3838C168.789 32.6676 168.621 32.8925 168.419 33.0584C168.217 33.2254 167.999 33.3432 167.764 33.412C167.529 33.4797 167.311 33.5135 167.109 33.5135C166.902 33.5135 166.683 33.4808 166.454 33.4153C166.225 33.3498 166.014 33.2368 165.821 33.0764C165.626 32.9148 165.465 32.6949 165.338 32.4166C165.209 32.1383 165.144 31.7863 165.144 31.3606ZM170.081 33.4071V30.0345C170.081 29.8489 170.064 29.6252 170.031 29.3632L170.645 29.2814L170.735 29.7971C170.883 29.6879 171.027 29.5924 171.169 29.5106C171.311 29.4287 171.464 29.3578 171.628 29.2977C171.791 29.2377 171.958 29.2077 172.127 29.2077C172.4 29.2077 172.615 29.2552 172.774 29.3501C172.932 29.4462 173.049 29.6088 173.126 29.838C173.349 29.6798 173.582 29.5351 173.825 29.4042C174.068 29.2732 174.321 29.2077 174.583 29.2077C174.785 29.2077 174.957 29.2334 175.099 29.2846C175.24 29.337 175.355 29.4233 175.442 29.5433C175.53 29.6634 175.592 29.8216 175.631 30.0181C175.669 30.2146 175.688 30.4601 175.688 30.7548V33.4071H175.033V30.8285C175.033 30.6648 175.03 30.5185 175.025 30.3897C175.019 30.262 175 30.1529 174.968 30.0623C174.935 29.9728 174.881 29.9035 174.807 29.8544C174.734 29.8053 174.629 29.7807 174.493 29.7807C174.367 29.7807 174.248 29.7982 174.136 29.8331C174.025 29.8691 173.909 29.9199 173.789 29.9854C173.669 30.0509 173.483 30.1846 173.232 30.3865V33.4071H172.577V30.8285C172.577 30.6648 172.575 30.5185 172.569 30.3897C172.564 30.262 172.545 30.1529 172.512 30.0623C172.479 29.9728 172.426 29.9035 172.351 29.8544C172.278 29.8053 172.173 29.7807 172.037 29.7807C171.895 29.7807 171.748 29.8107 171.595 29.8708C171.442 29.9308 171.298 30.0017 171.161 30.0836C171.025 30.1655 170.883 30.261 170.735 30.3701V33.4071H170.081ZM176.85 35.2735V30.2391C176.85 30.0427 176.837 29.7507 176.809 29.3632L177.415 29.2814L177.489 29.7234C177.598 29.6306 177.711 29.5471 177.828 29.4729C177.946 29.3998 178.074 29.337 178.212 29.2846C178.352 29.2334 178.501 29.2077 178.659 29.2077C178.883 29.2077 179.094 29.2459 179.293 29.3223C179.493 29.3987 179.667 29.5215 179.817 29.6907C179.967 29.8598 180.086 30.0792 180.174 30.3488C180.261 30.6195 180.305 30.9513 180.305 31.3442C180.305 31.7426 180.246 32.0793 180.128 32.3544C180.011 32.6305 179.858 32.8543 179.67 33.0256C179.482 33.1981 179.269 33.3225 179.031 33.3989C178.794 33.4753 178.553 33.5135 178.307 33.5135C178.045 33.508 177.778 33.4753 177.505 33.4153V35.1916L176.85 35.2735ZM178.307 32.9405C178.537 32.9405 178.733 32.8996 178.897 32.8177C179.061 32.7358 179.195 32.6223 179.301 32.4772C179.408 32.3331 179.486 32.1672 179.535 31.9795C179.584 31.7906 179.609 31.5898 179.609 31.377C179.609 31.186 179.591 30.995 179.555 30.804C179.52 30.613 179.463 30.4421 179.383 30.2915C179.304 30.142 179.2 30.0192 179.069 29.9232C178.938 29.8282 178.777 29.7807 178.586 29.7807C178.444 29.7807 178.31 29.8064 178.185 29.8577C178.059 29.9101 177.94 29.9728 177.828 30.0459C177.716 30.1202 177.609 30.2037 177.505 30.2964V32.8095C177.565 32.8313 177.632 32.8515 177.705 32.8701C177.779 32.8897 177.866 32.9061 177.967 32.9192C178.068 32.9334 178.182 32.9405 178.307 32.9405ZM183.553 32.4493V31.5161C183.444 31.5216 183.34 31.527 183.242 31.5325C183.144 31.538 183.047 31.5445 182.952 31.5522C182.856 31.5609 182.77 31.5707 182.693 31.5816C182.3 31.6307 182.022 31.7164 181.858 31.8387C181.695 31.962 181.613 32.1383 181.613 32.3675C181.613 32.5585 181.672 32.7015 181.79 32.7964C181.906 32.8925 182.06 32.9405 182.251 32.9405C182.513 32.9405 182.747 32.8952 182.952 32.8046C183.156 32.7151 183.356 32.5967 183.553 32.4493ZM183.627 33.4726L183.545 33.0223C183.288 33.1697 183.05 33.2881 182.829 33.3776C182.608 33.4682 182.369 33.5135 182.112 33.5135C181.747 33.5135 181.456 33.4245 181.241 33.2466C181.025 33.0698 180.917 32.7768 180.917 32.3675C180.917 32.1546 180.972 31.9691 181.081 31.8108C181.19 31.6526 181.333 31.52 181.511 31.413C181.688 31.3071 181.888 31.2242 182.112 31.1641C182.336 31.1041 182.565 31.0659 182.8 31.0495C182.898 31.0386 183.026 31.0288 183.185 31.0201C183.343 31.0124 183.466 31.0059 183.553 31.0004C183.553 30.8094 183.547 30.6391 183.537 30.4896C183.526 30.339 183.493 30.2102 183.438 30.1032C183.384 29.9974 183.304 29.9171 183.198 29.8626C183.091 29.808 182.939 29.7807 182.743 29.7807C182.584 29.7807 182.431 29.79 182.284 29.8085C182.137 29.8282 182.006 29.8489 181.891 29.8708C181.755 29.898 181.629 29.9281 181.515 29.9608L181.384 29.396C181.52 29.3632 181.667 29.3332 181.826 29.3059C181.962 29.2786 182.12 29.2552 182.3 29.2355C182.481 29.217 182.674 29.2077 182.882 29.2077C183.16 29.2077 183.385 29.2486 183.558 29.3305C183.729 29.4123 183.863 29.5226 183.959 29.6612C184.054 29.8009 184.119 29.9592 184.155 30.136C184.19 30.3139 184.208 30.5011 184.208 30.6975V32.6622C184.208 32.7386 184.209 32.8188 184.213 32.9028C184.215 32.988 184.22 33.0715 184.229 33.1533C184.237 33.2352 184.246 33.3198 184.257 33.4071L183.627 33.4726ZM185.37 33.4071V30.1082C185.376 29.9936 185.362 29.7452 185.329 29.3632L185.935 29.2814L186.025 29.8053C186.189 29.6961 186.351 29.6006 186.511 29.5188C186.673 29.4369 186.838 29.3643 187.007 29.301C187.177 29.2388 187.34 29.2077 187.499 29.2077C187.722 29.2077 187.909 29.2334 188.058 29.2846C188.209 29.337 188.331 29.4233 188.424 29.5433C188.516 29.6634 188.583 29.8216 188.623 30.0181C188.665 30.2146 188.686 30.4601 188.686 30.7548V33.4071H188.031V30.8285C188.031 30.6648 188.028 30.5185 188.022 30.3897C188.017 30.262 187.994 30.1529 187.952 30.0623C187.912 29.9728 187.849 29.9035 187.764 29.8544C187.68 29.8053 187.561 29.7807 187.409 29.7807C187.267 29.7807 187.117 29.8118 186.958 29.874C186.8 29.9373 186.644 30.0099 186.492 30.0918C186.339 30.1736 186.183 30.2691 186.025 30.3783V33.4071H185.37ZM189.84 33.4071V29.2814L190.495 29.2077V33.4071H189.84ZM189.733 28.1108C189.733 27.9853 189.775 27.8805 189.859 27.7964C189.945 27.7113 190.05 27.6687 190.175 27.6687C190.306 27.6687 190.417 27.7113 190.506 27.7964C190.597 27.8805 190.642 27.9853 190.642 28.1108C190.642 28.2363 190.597 28.3411 190.506 28.4251C190.417 28.5103 190.306 28.5528 190.175 28.5528C190.05 28.5528 189.945 28.5103 189.859 28.4251C189.775 28.3411 189.733 28.2363 189.733 28.1108ZM192.138 31.3688C192.138 31.8981 192.257 32.2922 192.495 32.5508C192.732 32.8106 193.052 32.9405 193.456 32.9405C193.855 32.9405 194.166 32.8122 194.389 32.5557C194.613 32.2993 194.725 31.9145 194.725 31.4015C194.725 30.8558 194.607 30.4492 194.37 30.1818C194.132 29.9144 193.808 29.7807 193.399 29.7807C192.99 29.7807 192.678 29.9128 192.463 30.1769C192.246 30.4421 192.138 30.8394 192.138 31.3688ZM191.443 31.3606C191.443 30.9458 191.508 30.6009 191.639 30.3259C191.77 30.0498 191.936 29.8282 192.138 29.6612C192.34 29.4953 192.557 29.378 192.79 29.3092C193.021 29.2415 193.241 29.2077 193.448 29.2077C193.645 29.2077 193.859 29.2388 194.091 29.301C194.323 29.3643 194.537 29.4762 194.733 29.6366C194.93 29.7982 195.093 30.0143 195.224 30.285C195.355 30.5546 195.421 30.8967 195.421 31.3115C195.421 31.7426 195.354 32.1001 195.221 32.3838C195.087 32.6676 194.919 32.8925 194.717 33.0584C194.515 33.2254 194.297 33.3432 194.062 33.412C193.827 33.4797 193.609 33.5135 193.407 33.5135C193.2 33.5135 192.981 33.4808 192.752 33.4153C192.523 33.3498 192.312 33.2368 192.119 33.0764C191.924 32.9148 191.763 32.6949 191.636 32.4166C191.507 32.1383 191.443 31.7863 191.443 31.3606ZM196.379 33.4071V30.1082C196.384 29.9936 196.37 29.7452 196.338 29.3632L196.943 29.2814L197.034 29.8053C197.197 29.6961 197.36 29.6006 197.521 29.5188C197.682 29.4369 197.847 29.3643 198.016 29.301C198.185 29.2388 198.349 29.2077 198.507 29.2077C198.731 29.2077 198.918 29.2334 199.069 29.2846C199.218 29.337 199.339 29.4233 199.432 29.5433C199.525 29.6634 199.592 29.8216 199.633 30.0181C199.674 30.2146 199.694 30.4601 199.694 30.7548V33.4071H199.039V30.8285C199.039 30.6648 199.036 30.5185 199.031 30.3897C199.025 30.262 199.003 30.1529 198.962 30.0623C198.921 29.9728 198.858 29.9035 198.774 29.8544C198.689 29.8053 198.57 29.7807 198.417 29.7807C198.275 29.7807 198.125 29.8118 197.967 29.874C197.808 29.9373 197.653 30.0099 197.5 30.0918C197.347 30.1736 197.192 30.2691 197.034 30.3783V33.4071H196.379Z"/>
</mask>
<path d="M85.7262 33.4071V31.377L83.9417 27.8243H84.7029L86.07 30.5338L87.4452 27.8243H88.2065L86.422 31.377V33.4071H85.7262ZM88.9269 31.3688C88.9269 31.8981 89.0453 32.2922 89.2821 32.5508C89.5201 32.8106 89.841 32.9405 90.2448 32.9405C90.6432 32.9405 90.9543 32.8122 91.178 32.5557C91.4018 32.2993 91.5136 31.9145 91.5136 31.4015C91.5136 30.8558 91.3947 30.4492 91.1567 30.1818C90.9199 29.9144 90.5968 29.7807 90.1875 29.7807C89.7782 29.7807 89.4655 29.9128 89.2494 30.1769C89.0344 30.4421 88.9269 30.8394 88.9269 31.3688ZM88.2311 31.3606C88.2311 30.9458 88.2966 30.6009 88.4275 30.3259C88.5585 30.0498 88.725 29.8282 88.9269 29.6612C89.1288 29.4953 89.3455 29.378 89.5768 29.3092C89.8093 29.2415 90.0293 29.2077 90.2366 29.2077C90.4331 29.2077 90.647 29.2388 90.8784 29.301C91.1109 29.3643 91.3254 29.4762 91.5218 29.6366C91.7183 29.7982 91.882 30.0143 92.013 30.285C92.144 30.5546 92.2094 30.8967 92.2094 31.3115C92.2094 31.7426 92.1423 32.1001 92.0081 32.3838C91.8749 32.6676 91.7074 32.8925 91.5054 33.0584C91.3035 33.2254 91.0852 33.3432 90.8506 33.412C90.6159 33.4797 90.3976 33.5135 90.1957 33.5135C89.9883 33.5135 89.77 33.4808 89.5408 33.4153C89.3116 33.3498 89.0999 33.2368 88.9056 33.0764C88.7124 32.9148 88.5514 32.6949 88.4226 32.4166C88.2949 32.1383 88.2311 31.7863 88.2311 31.3606ZM95.6721 33.4726L95.623 32.9569H95.605C95.5569 32.9951 95.4865 33.0453 95.3938 33.1075C95.301 33.1708 95.194 33.2324 95.0729 33.2925C94.9539 33.3525 94.8218 33.4044 94.6767 33.448C94.5315 33.4917 94.3858 33.5135 94.2395 33.5135C94.0376 33.5135 93.8652 33.4878 93.7222 33.4366C93.5814 33.3842 93.4673 33.2979 93.38 33.1779C93.2927 33.0578 93.2294 32.8996 93.1901 32.7031C93.153 32.5066 93.1344 32.2611 93.1344 31.9664V29.2896H93.7893V31.8681C93.7893 32.0318 93.7921 32.1792 93.7975 32.3102C93.8019 32.4411 93.821 32.553 93.8548 32.6458C93.8876 32.7386 93.9405 32.8106 94.0136 32.8619C94.0878 32.9143 94.1932 32.9405 94.3296 32.9405C94.4704 32.9405 94.6177 32.9105 94.7716 32.8504C94.9244 32.7904 95.0636 32.7222 95.1891 32.6458C95.3365 32.5585 95.4811 32.4602 95.623 32.3511V29.2896H96.2778V32.875C96.2833 33.0715 96.2969 33.2488 96.3188 33.4071L95.6721 33.4726ZM97.4714 33.4071V29.9526C97.4714 29.8271 97.4577 29.6306 97.4304 29.3632L98.0362 29.2814L98.1017 29.8789H98.1099C98.2081 29.7534 98.3036 29.6443 98.3964 29.5515C98.4891 29.4587 98.5863 29.378 98.6878 29.3092C98.7882 29.2415 98.8848 29.2077 98.9776 29.2077C99.1031 29.2022 99.2777 29.2159 99.5015 29.2486L99.3541 29.8789C99.174 29.8462 99.0485 29.8326 98.9776 29.838C98.8848 29.838 98.7866 29.8817 98.6829 29.969C98.5792 30.0563 98.4891 30.1491 98.4127 30.2473C98.3145 30.3674 98.219 30.5038 98.1262 30.6566V33.4071H97.4714ZM102.227 33.4071V27.8243H102.915V32.7522H105.453V33.4071H102.227ZM108.473 32.4493V31.5161C108.364 31.5216 108.26 31.527 108.161 31.5325C108.063 31.538 107.967 31.5445 107.871 31.5522C107.776 31.5609 107.69 31.5707 107.614 31.5816C107.221 31.6307 106.942 31.7164 106.779 31.8387C106.615 31.962 106.533 32.1383 106.533 32.3675C106.533 32.5585 106.592 32.7015 106.708 32.7964C106.826 32.8925 106.981 32.9405 107.172 32.9405C107.434 32.9405 107.667 32.8952 107.871 32.8046C108.076 32.7151 108.277 32.5967 108.473 32.4493ZM108.547 33.4726L108.465 33.0223C108.207 33.1697 107.968 33.2881 107.748 33.3776C107.527 33.4682 107.289 33.5135 107.033 33.5135C106.666 33.5135 106.375 33.4245 106.16 33.2466C105.945 33.0698 105.837 32.7768 105.837 32.3675C105.837 32.1546 105.892 31.9691 106.001 31.8108C106.11 31.6526 106.253 31.52 106.43 31.413C106.608 31.3071 106.809 31.2242 107.033 31.1641C107.256 31.1041 107.485 31.0659 107.72 31.0495C107.818 31.0386 107.947 31.0288 108.105 31.0201C108.263 31.0124 108.386 31.0059 108.473 31.0004C108.473 30.8094 108.468 30.6391 108.457 30.4896C108.446 30.339 108.413 30.2102 108.359 30.1032C108.304 29.9974 108.223 29.9171 108.116 29.8626C108.009 29.808 107.858 29.7807 107.663 29.7807C107.503 29.7807 107.351 29.79 107.204 29.8085C107.057 29.8282 106.926 29.8489 106.81 29.8708C106.673 29.898 106.548 29.9281 106.435 29.9608L106.304 29.396C106.44 29.3632 106.588 29.3332 106.746 29.3059C106.882 29.2786 107.04 29.2552 107.219 29.2355C107.4 29.217 107.595 29.2077 107.802 29.2077C108.08 29.2077 108.305 29.2486 108.477 29.3305C108.649 29.4123 108.783 29.5226 108.878 29.6612C108.974 29.8009 109.039 29.9592 109.074 30.136C109.11 30.3139 109.128 30.5011 109.128 30.6975V32.6622C109.128 32.7386 109.129 32.8188 109.131 32.9028C109.135 32.988 109.14 33.0715 109.148 33.1533C109.156 33.2352 109.166 33.3198 109.177 33.4071L108.547 33.4726ZM110.289 33.4071V30.1082C110.294 29.9936 110.281 29.7452 110.248 29.3632L110.854 29.2814L110.944 29.8053C111.107 29.6961 111.27 29.6006 111.432 29.5188C111.592 29.4369 111.757 29.3643 111.926 29.301C112.095 29.2388 112.259 29.2077 112.417 29.2077C112.641 29.2077 112.828 29.2334 112.979 29.2846C113.128 29.337 113.249 29.4233 113.342 29.5433C113.435 29.6634 113.502 29.8216 113.544 30.0181C113.584 30.2146 113.604 30.4601 113.604 30.7548V33.4071H112.949V30.8285C112.949 30.6648 112.947 30.5185 112.941 30.3897C112.936 30.262 112.913 30.1529 112.872 30.0623C112.831 29.9728 112.768 29.9035 112.684 29.8544C112.599 29.8053 112.48 29.7807 112.327 29.7807C112.185 29.7807 112.035 29.8118 111.877 29.874C111.719 29.9373 111.563 30.0099 111.41 30.0918C111.258 30.1736 111.102 30.2691 110.944 30.3783V33.4071H110.289ZM117.329 32.5066V29.9035C117.132 29.8489 116.98 29.8146 116.87 29.8004C116.761 29.7873 116.649 29.7807 116.535 29.7807C116.306 29.7807 116.109 29.8216 115.945 29.9035C115.782 29.9854 115.647 30.0983 115.541 30.2424C115.434 30.3876 115.356 30.554 115.307 30.7417C115.258 30.9306 115.233 31.1314 115.233 31.3442C115.233 31.5352 115.254 31.7262 115.295 31.9172C115.336 32.1082 115.4 32.2802 115.487 32.433C115.574 32.5858 115.681 32.7085 115.806 32.8013C115.932 32.8941 116.082 32.9405 116.256 32.9405C116.376 32.9405 116.501 32.9187 116.63 32.875C116.757 32.8313 116.876 32.7811 116.985 32.7244C117.094 32.6665 117.209 32.5939 117.329 32.5066ZM117.402 33.4726L117.337 33.0796C117.211 33.167 117.09 33.239 116.974 33.2958C116.856 33.3536 116.727 33.4044 116.589 33.448C116.449 33.4917 116.314 33.5135 116.183 33.5135C115.67 33.5135 115.268 33.3318 114.976 32.9683C114.684 32.606 114.537 32.0755 114.537 31.377C114.537 30.9622 114.604 30.6157 114.739 30.3374C114.872 30.059 115.039 29.8364 115.241 29.6694C115.443 29.5035 115.66 29.3851 115.893 29.3141C116.124 29.2432 116.338 29.2077 116.535 29.2077C116.633 29.2077 116.737 29.2142 116.846 29.2273C116.955 29.2415 117.116 29.2759 117.329 29.3305V27.2758L117.984 27.2021V32.6622C117.984 32.7386 117.985 32.8188 117.989 32.9028C117.991 32.988 117.996 33.0715 118.005 33.1533C118.013 33.2352 118.022 33.3198 118.033 33.4071L117.402 33.4726ZM119.072 29.2077V27.2021H119.727V29.2077H119.072ZM123.149 29.3796L123.034 29.9608C122.805 29.8899 122.602 29.8418 122.424 29.8167C122.247 29.7927 122.085 29.7807 121.937 29.7807C121.746 29.7807 121.587 29.8271 121.458 29.9199C121.33 30.0127 121.266 30.1327 121.266 30.2801C121.272 30.411 121.329 30.5229 121.438 30.6157C121.547 30.7085 121.674 30.7914 121.818 30.8645C121.963 30.9388 122.124 31.0195 122.301 31.1068C122.479 31.1942 122.645 31.2924 122.8 31.4015C122.956 31.5107 123.083 31.6417 123.182 31.7945C123.28 31.9473 123.332 32.1301 123.337 32.3429C123.332 32.5721 123.281 32.7615 123.185 32.911C123.09 33.0616 122.967 33.1817 122.817 33.2712C122.667 33.3618 122.505 33.4251 122.33 33.4611C122.156 33.496 121.992 33.5135 121.839 33.5135C121.643 33.5135 121.439 33.5026 121.229 33.4808C121.019 33.4589 120.794 33.4125 120.554 33.3416L120.677 32.7522C120.922 32.8177 121.146 32.8652 121.348 32.8946C121.55 32.9252 121.716 32.9405 121.847 32.9405C121.946 32.9405 122.042 32.9296 122.137 32.9077C122.233 32.8859 122.319 32.8543 122.396 32.8128C122.472 32.7724 122.533 32.7195 122.579 32.654C122.626 32.5885 122.65 32.5148 122.65 32.433C122.644 32.2802 122.592 32.1503 122.494 32.0433C122.396 31.9374 122.269 31.8419 122.113 31.7568C121.958 31.6728 121.791 31.5882 121.613 31.503C121.436 31.419 121.27 31.3208 121.114 31.2083C120.959 31.097 120.83 30.9633 120.726 30.8072C120.622 30.6522 120.57 30.4601 120.57 30.2309C120.57 30.0672 120.612 29.921 120.696 29.7922C120.782 29.6645 120.891 29.5581 121.024 29.4729C121.158 29.3889 121.305 29.3234 121.466 29.2765C121.627 29.2306 121.785 29.2077 121.937 29.2077C122.096 29.2077 122.273 29.2197 122.47 29.2437C122.666 29.2688 122.892 29.3141 123.149 29.3796ZM126.225 33.4071V27.8243H126.913V33.4071H126.225ZM128.231 33.4071V30.1082C128.236 29.9936 128.223 29.7452 128.19 29.3632L128.796 29.2814L128.886 29.8053C129.049 29.6961 129.211 29.6006 129.372 29.5188C129.533 29.4369 129.699 29.3643 129.868 29.301C130.037 29.2388 130.201 29.2077 130.359 29.2077C130.583 29.2077 130.77 29.2334 130.919 29.2846C131.07 29.337 131.191 29.4233 131.284 29.5433C131.377 29.6634 131.443 29.8216 131.484 30.0181C131.525 30.2146 131.546 30.4601 131.546 30.7548V33.4071H130.891V30.8285C130.891 30.6648 130.888 30.5185 130.883 30.3897C130.878 30.262 130.854 30.1529 130.813 30.0623C130.772 29.9728 130.709 29.9035 130.624 29.8544C130.54 29.8053 130.422 29.7807 130.269 29.7807C130.127 29.7807 129.977 29.8118 129.819 29.874C129.661 29.9373 129.505 30.0099 129.352 30.0918C129.199 30.1736 129.044 30.2691 128.886 30.3783V33.4071H128.231ZM135.041 29.3796L134.927 29.9608C134.698 29.8899 134.494 29.8418 134.316 29.8167C134.139 29.7927 133.977 29.7807 133.83 29.7807C133.639 29.7807 133.479 29.8271 133.35 29.9199C133.223 30.0127 133.159 30.1327 133.159 30.2801C133.164 30.411 133.221 30.5229 133.331 30.6157C133.44 30.7085 133.566 30.7914 133.71 30.8645C133.856 30.9388 134.017 31.0195 134.193 31.1068C134.371 31.1942 134.538 31.2924 134.693 31.4015C134.849 31.5107 134.976 31.6417 135.074 31.7945C135.172 31.9473 135.224 32.1301 135.23 32.3429C135.224 32.5721 135.174 32.7615 135.078 32.911C134.983 33.0616 134.86 33.1817 134.709 33.2712C134.56 33.3618 134.398 33.4251 134.223 33.4611C134.048 33.496 133.885 33.5135 133.732 33.5135C133.535 33.5135 133.332 33.5026 133.121 33.4808C132.912 33.4589 132.687 33.4125 132.447 33.3416L132.569 32.7522C132.815 32.8177 133.039 32.8652 133.241 32.8946C133.443 32.9252 133.609 32.9405 133.74 32.9405C133.838 32.9405 133.935 32.9296 134.03 32.9077C134.126 32.8859 134.212 32.8543 134.288 32.8128C134.365 32.7724 134.426 32.7195 134.472 32.654C134.519 32.5885 134.542 32.5148 134.542 32.433C134.537 32.2802 134.485 32.1503 134.387 32.0433C134.288 31.9374 134.161 31.8419 134.005 31.7568C133.85 31.6728 133.684 31.5882 133.506 31.503C133.329 31.419 133.163 31.3208 133.006 31.2083C132.851 31.097 132.722 30.9633 132.618 30.8072C132.515 30.6522 132.463 30.4601 132.463 30.2309C132.463 30.0672 132.505 29.921 132.589 29.7922C132.674 29.6645 132.783 29.5581 132.916 29.4729C133.051 29.3889 133.198 29.3234 133.358 29.2765C133.52 29.2306 133.677 29.2077 133.83 29.2077C133.988 29.2077 134.166 29.2197 134.362 29.2437C134.559 29.2688 134.785 29.3141 135.041 29.3796ZM136.112 33.4071V29.2814L136.767 29.2077V33.4071H136.112ZM136.006 28.1108C136.006 27.9853 136.048 27.8805 136.133 27.7964C136.218 27.7113 136.322 27.6687 136.448 27.6687C136.579 27.6687 136.69 27.7113 136.78 27.7964C136.87 27.8805 136.914 27.9853 136.914 28.1108C136.914 28.2363 136.87 28.3411 136.78 28.4251C136.69 28.5103 136.579 28.5528 136.448 28.5528C136.322 28.5528 136.218 28.5103 136.133 28.4251C136.048 28.3411 136.006 28.2363 136.006 28.1108ZM141.171 29.3878V33.8C141.171 34.0019 141.149 34.1984 141.106 34.3894C141.062 34.5804 140.979 34.7512 140.857 34.9018C140.733 35.0514 140.562 35.1714 140.341 35.262C140.119 35.3515 139.829 35.3963 139.468 35.3963C139.239 35.3908 139.04 35.3772 138.871 35.3553C138.702 35.3335 138.541 35.3024 138.388 35.262C138.235 35.2205 138.096 35.1725 137.97 35.1179L138.142 34.5449C138.355 34.6377 138.572 34.7086 138.794 34.7578C139.014 34.8069 139.212 34.8314 139.387 34.8314C139.578 34.8314 139.744 34.8123 139.886 34.7741C140.028 34.7359 140.147 34.6721 140.243 34.5826C140.338 34.492 140.409 34.373 140.456 34.2257C140.501 34.0783 140.524 33.8955 140.524 33.6772V33.0796C140.41 33.156 140.291 33.2254 140.169 33.2876C140.046 33.3509 139.915 33.4044 139.776 33.448C139.637 33.4917 139.501 33.5135 139.37 33.5135C138.863 33.5135 138.462 33.3345 138.167 32.9765C137.872 32.6196 137.725 32.0864 137.725 31.377C137.725 30.9677 137.789 30.625 137.918 30.3488C138.046 30.0738 138.208 29.8517 138.404 29.6825C138.601 29.5133 138.816 29.3916 139.051 29.3174C139.286 29.2443 139.509 29.2077 139.722 29.2077C140.001 29.2077 140.256 29.2306 140.488 29.2765C140.72 29.3234 140.947 29.3605 141.171 29.3878ZM139.444 32.9405C139.564 32.9405 139.687 32.9187 139.812 32.875C139.938 32.8313 140.059 32.7795 140.177 32.7195C140.294 32.6594 140.41 32.5885 140.524 32.5066V29.8953C140.459 29.8789 140.383 29.8598 140.295 29.838C140.219 29.8271 140.131 29.8146 140.033 29.8004C139.935 29.7873 139.831 29.7807 139.722 29.7807C139.493 29.7807 139.297 29.8216 139.133 29.9035C138.969 29.9854 138.834 30.0972 138.728 30.2391C138.621 30.381 138.543 30.5475 138.494 30.7385C138.445 30.9295 138.421 31.1314 138.421 31.3442C138.421 31.5352 138.441 31.7262 138.483 31.9172C138.523 32.1082 138.587 32.2802 138.674 32.433C138.762 32.5858 138.868 32.7085 138.994 32.8013C139.119 32.8941 139.269 32.9405 139.444 32.9405ZM142.35 33.4071V27.2758L143.005 27.2021V29.8053C143.168 29.6961 143.331 29.6006 143.491 29.5188C143.653 29.4369 143.818 29.3643 143.987 29.301C144.156 29.2388 144.32 29.2077 144.478 29.2077C144.702 29.2077 144.889 29.2334 145.038 29.2846C145.189 29.337 145.31 29.4233 145.403 29.5433C145.496 29.6634 145.563 29.8216 145.603 30.0181C145.644 30.2146 145.665 30.4601 145.665 30.7548V33.4071H145.01V30.8285C145.01 30.6648 145.008 30.5185 145.002 30.3897C144.997 30.262 144.973 30.1529 144.932 30.0623C144.891 29.9728 144.829 29.9035 144.743 29.8544C144.659 29.8053 144.541 29.7807 144.388 29.7807C144.246 29.7807 144.093 29.8118 143.93 29.874C143.766 29.9373 143.611 30.0099 143.463 30.0918C143.316 30.1736 143.163 30.2691 143.005 30.3783V33.4071H142.35ZM147.122 28.1435L147.777 28.0617V29.2896H148.964V29.8216H147.777V32.0073C147.777 32.1874 147.781 32.3375 147.789 32.4575C147.797 32.5776 147.815 32.6731 147.843 32.744C147.87 32.815 147.908 32.8652 147.957 32.8946C148.006 32.9252 148.069 32.9405 148.146 32.9405C148.353 32.935 148.593 32.8586 148.866 32.7113L149.062 33.2106C148.882 33.3307 148.714 33.4114 148.558 33.4529C148.403 33.4933 148.249 33.5135 148.096 33.5135C147.736 33.5135 147.484 33.4109 147.338 33.2057C147.194 33.0016 147.122 32.6622 147.122 32.1874V29.8216H146.369V29.2896H147.122V28.1435ZM150.149 33.4071V29.8216H149.388V29.2896H150.149C150.149 28.9076 150.176 28.5839 150.228 28.3187C150.279 28.0546 150.362 27.8396 150.477 27.6737C150.591 27.5067 150.739 27.3861 150.919 27.3118C151.099 27.2387 151.317 27.2021 151.574 27.2021C151.781 27.2021 151.975 27.2365 152.155 27.3053C152.335 27.373 152.48 27.4559 152.589 27.5541L152.302 28.0453C152.193 27.9634 152.08 27.898 151.963 27.8488C151.846 27.7997 151.718 27.7752 151.582 27.7752C151.402 27.7752 151.26 27.8145 151.156 27.893C151.053 27.9727 150.975 28.0808 150.924 28.2172C150.871 28.3536 150.839 28.513 150.826 28.6953C150.811 28.8786 150.804 29.0767 150.804 29.2896H151.828V29.8216H150.804V33.4071H150.149ZM155.094 33.4726L155.045 32.9569H155.028C154.979 32.9951 154.908 33.0453 154.815 33.1075C154.723 33.1708 154.616 33.2324 154.496 33.2925C154.376 33.3525 154.244 33.4044 154.1 33.448C153.955 33.4917 153.809 33.5135 153.661 33.5135C153.459 33.5135 153.287 33.4878 153.145 33.4366C153.004 33.3842 152.889 33.2979 152.802 33.1779C152.714 33.0578 152.652 32.8996 152.613 32.7031C152.575 32.5066 152.556 32.2611 152.556 31.9664V29.2896H153.211V31.8681C153.211 32.0318 153.214 32.1792 153.219 32.3102C153.225 32.4411 153.244 32.553 153.276 32.6458C153.309 32.7386 153.363 32.8106 153.437 32.8619C153.51 32.9143 153.615 32.9405 153.751 32.9405C153.893 32.9405 154.04 32.9105 154.193 32.8504C154.346 32.7904 154.485 32.7222 154.611 32.6458C154.758 32.5585 154.903 32.4602 155.045 32.3511V29.2896H155.699V32.875C155.705 33.0715 155.719 33.2488 155.74 33.4071L155.094 33.4726ZM156.886 33.4071V27.2758L157.541 27.2021V33.4071H156.886ZM164.67 28.0044L164.522 28.6101C164.386 28.5665 164.241 28.5266 164.088 28.4906C163.936 28.4557 163.768 28.4257 163.586 28.4006C163.402 28.3766 163.21 28.3646 163.008 28.3646C162.68 28.3646 162.402 28.4355 162.173 28.5774C161.944 28.7193 161.757 28.9005 161.613 29.1209C161.468 29.3425 161.363 29.5897 161.297 29.8626C161.232 30.1354 161.199 30.4056 161.199 30.673C161.199 31.0113 161.247 31.318 161.343 31.5931C161.438 31.8692 161.569 32.1039 161.736 32.2971C161.902 32.4913 162.095 32.6403 162.317 32.744C162.537 32.8477 162.77 32.8996 163.016 32.8996C163.245 32.8996 163.455 32.887 163.646 32.8619C163.837 32.8379 164.001 32.8122 164.138 32.785C164.296 32.7522 164.438 32.714 164.563 32.6703L164.702 33.2515C164.555 33.3007 164.391 33.3443 164.211 33.3825C164.058 33.4153 163.881 33.4453 163.679 33.4726C163.477 33.4999 163.256 33.5135 163.016 33.5135C162.585 33.5135 162.207 33.4426 161.883 33.3007C161.558 33.1588 161.288 32.9607 161.073 32.7064C160.857 32.4531 160.694 32.153 160.585 31.8059C160.476 31.4599 160.421 31.0795 160.421 30.6648C160.421 30.19 160.487 29.7709 160.618 29.4074C160.749 29.0451 160.929 28.7411 161.158 28.4955C161.387 28.2499 161.66 28.0644 161.976 27.9389C162.293 27.8134 162.64 27.7506 163.016 27.7506C163.245 27.7506 163.46 27.7626 163.659 27.7866C163.858 27.8117 164.041 27.8434 164.208 27.8816C164.374 27.9198 164.528 27.9607 164.67 28.0044ZM165.84 31.3688C165.84 31.8981 165.959 32.2922 166.197 32.5508C166.434 32.8106 166.754 32.9405 167.158 32.9405C167.557 32.9405 167.868 32.8122 168.091 32.5557C168.315 32.2993 168.427 31.9145 168.427 31.4015C168.427 30.8558 168.309 30.4492 168.072 30.1818C167.834 29.9144 167.51 29.7807 167.101 29.7807C166.692 29.7807 166.379 29.9128 166.164 30.1769C165.948 30.4421 165.84 30.8394 165.84 31.3688ZM165.144 31.3606C165.144 30.9458 165.21 30.6009 165.341 30.3259C165.472 30.0498 165.638 29.8282 165.84 29.6612C166.042 29.4953 166.259 29.378 166.492 29.3092C166.723 29.2415 166.943 29.2077 167.15 29.2077C167.346 29.2077 167.561 29.2388 167.793 29.301C168.025 29.3643 168.239 29.4762 168.435 29.6366C168.632 29.7982 168.795 30.0143 168.926 30.285C169.057 30.5546 169.123 30.8967 169.123 31.3115C169.123 31.7426 169.056 32.1001 168.923 32.3838C168.789 32.6676 168.621 32.8925 168.419 33.0584C168.217 33.2254 167.999 33.3432 167.764 33.412C167.529 33.4797 167.311 33.5135 167.109 33.5135C166.902 33.5135 166.683 33.4808 166.454 33.4153C166.225 33.3498 166.014 33.2368 165.821 33.0764C165.626 32.9148 165.465 32.6949 165.338 32.4166C165.209 32.1383 165.144 31.7863 165.144 31.3606ZM170.081 33.4071V30.0345C170.081 29.8489 170.064 29.6252 170.031 29.3632L170.645 29.2814L170.735 29.7971C170.883 29.6879 171.027 29.5924 171.169 29.5106C171.311 29.4287 171.464 29.3578 171.628 29.2977C171.791 29.2377 171.958 29.2077 172.127 29.2077C172.4 29.2077 172.615 29.2552 172.774 29.3501C172.932 29.4462 173.049 29.6088 173.126 29.838C173.349 29.6798 173.582 29.5351 173.825 29.4042C174.068 29.2732 174.321 29.2077 174.583 29.2077C174.785 29.2077 174.957 29.2334 175.099 29.2846C175.24 29.337 175.355 29.4233 175.442 29.5433C175.53 29.6634 175.592 29.8216 175.631 30.0181C175.669 30.2146 175.688 30.4601 175.688 30.7548V33.4071H175.033V30.8285C175.033 30.6648 175.03 30.5185 175.025 30.3897C175.019 30.262 175 30.1529 174.968 30.0623C174.935 29.9728 174.881 29.9035 174.807 29.8544C174.734 29.8053 174.629 29.7807 174.493 29.7807C174.367 29.7807 174.248 29.7982 174.136 29.8331C174.025 29.8691 173.909 29.9199 173.789 29.9854C173.669 30.0509 173.483 30.1846 173.232 30.3865V33.4071H172.577V30.8285C172.577 30.6648 172.575 30.5185 172.569 30.3897C172.564 30.262 172.545 30.1529 172.512 30.0623C172.479 29.9728 172.426 29.9035 172.351 29.8544C172.278 29.8053 172.173 29.7807 172.037 29.7807C171.895 29.7807 171.748 29.8107 171.595 29.8708C171.442 29.9308 171.298 30.0017 171.161 30.0836C171.025 30.1655 170.883 30.261 170.735 30.3701V33.4071H170.081ZM176.85 35.2735V30.2391C176.85 30.0427 176.837 29.7507 176.809 29.3632L177.415 29.2814L177.489 29.7234C177.598 29.6306 177.711 29.5471 177.828 29.4729C177.946 29.3998 178.074 29.337 178.212 29.2846C178.352 29.2334 178.501 29.2077 178.659 29.2077C178.883 29.2077 179.094 29.2459 179.293 29.3223C179.493 29.3987 179.667 29.5215 179.817 29.6907C179.967 29.8598 180.086 30.0792 180.174 30.3488C180.261 30.6195 180.305 30.9513 180.305 31.3442C180.305 31.7426 180.246 32.0793 180.128 32.3544C180.011 32.6305 179.858 32.8543 179.67 33.0256C179.482 33.1981 179.269 33.3225 179.031 33.3989C178.794 33.4753 178.553 33.5135 178.307 33.5135C178.045 33.508 177.778 33.4753 177.505 33.4153V35.1916L176.85 35.2735ZM178.307 32.9405C178.537 32.9405 178.733 32.8996 178.897 32.8177C179.061 32.7358 179.195 32.6223 179.301 32.4772C179.408 32.3331 179.486 32.1672 179.535 31.9795C179.584 31.7906 179.609 31.5898 179.609 31.377C179.609 31.186 179.591 30.995 179.555 30.804C179.52 30.613 179.463 30.4421 179.383 30.2915C179.304 30.142 179.2 30.0192 179.069 29.9232C178.938 29.8282 178.777 29.7807 178.586 29.7807C178.444 29.7807 178.31 29.8064 178.185 29.8577C178.059 29.9101 177.94 29.9728 177.828 30.0459C177.716 30.1202 177.609 30.2037 177.505 30.2964V32.8095C177.565 32.8313 177.632 32.8515 177.705 32.8701C177.779 32.8897 177.866 32.9061 177.967 32.9192C178.068 32.9334 178.182 32.9405 178.307 32.9405ZM183.553 32.4493V31.5161C183.444 31.5216 183.34 31.527 183.242 31.5325C183.144 31.538 183.047 31.5445 182.952 31.5522C182.856 31.5609 182.77 31.5707 182.693 31.5816C182.3 31.6307 182.022 31.7164 181.858 31.8387C181.695 31.962 181.613 32.1383 181.613 32.3675C181.613 32.5585 181.672 32.7015 181.79 32.7964C181.906 32.8925 182.06 32.9405 182.251 32.9405C182.513 32.9405 182.747 32.8952 182.952 32.8046C183.156 32.7151 183.356 32.5967 183.553 32.4493ZM183.627 33.4726L183.545 33.0223C183.288 33.1697 183.05 33.2881 182.829 33.3776C182.608 33.4682 182.369 33.5135 182.112 33.5135C181.747 33.5135 181.456 33.4245 181.241 33.2466C181.025 33.0698 180.917 32.7768 180.917 32.3675C180.917 32.1546 180.972 31.9691 181.081 31.8108C181.19 31.6526 181.333 31.52 181.511 31.413C181.688 31.3071 181.888 31.2242 182.112 31.1641C182.336 31.1041 182.565 31.0659 182.8 31.0495C182.898 31.0386 183.026 31.0288 183.185 31.0201C183.343 31.0124 183.466 31.0059 183.553 31.0004C183.553 30.8094 183.547 30.6391 183.537 30.4896C183.526 30.339 183.493 30.2102 183.438 30.1032C183.384 29.9974 183.304 29.9171 183.198 29.8626C183.091 29.808 182.939 29.7807 182.743 29.7807C182.584 29.7807 182.431 29.79 182.284 29.8085C182.137 29.8282 182.006 29.8489 181.891 29.8708C181.755 29.898 181.629 29.9281 181.515 29.9608L181.384 29.396C181.52 29.3632 181.667 29.3332 181.826 29.3059C181.962 29.2786 182.12 29.2552 182.3 29.2355C182.481 29.217 182.674 29.2077 182.882 29.2077C183.16 29.2077 183.385 29.2486 183.558 29.3305C183.729 29.4123 183.863 29.5226 183.959 29.6612C184.054 29.8009 184.119 29.9592 184.155 30.136C184.19 30.3139 184.208 30.5011 184.208 30.6975V32.6622C184.208 32.7386 184.209 32.8188 184.213 32.9028C184.215 32.988 184.22 33.0715 184.229 33.1533C184.237 33.2352 184.246 33.3198 184.257 33.4071L183.627 33.4726ZM185.37 33.4071V30.1082C185.376 29.9936 185.362 29.7452 185.329 29.3632L185.935 29.2814L186.025 29.8053C186.189 29.6961 186.351 29.6006 186.511 29.5188C186.673 29.4369 186.838 29.3643 187.007 29.301C187.177 29.2388 187.34 29.2077 187.499 29.2077C187.722 29.2077 187.909 29.2334 188.058 29.2846C188.209 29.337 188.331 29.4233 188.424 29.5433C188.516 29.6634 188.583 29.8216 188.623 30.0181C188.665 30.2146 188.686 30.4601 188.686 30.7548V33.4071H188.031V30.8285C188.031 30.6648 188.028 30.5185 188.022 30.3897C188.017 30.262 187.994 30.1529 187.952 30.0623C187.912 29.9728 187.849 29.9035 187.764 29.8544C187.68 29.8053 187.561 29.7807 187.409 29.7807C187.267 29.7807 187.117 29.8118 186.958 29.874C186.8 29.9373 186.644 30.0099 186.492 30.0918C186.339 30.1736 186.183 30.2691 186.025 30.3783V33.4071H185.37ZM189.84 33.4071V29.2814L190.495 29.2077V33.4071H189.84ZM189.733 28.1108C189.733 27.9853 189.775 27.8805 189.859 27.7964C189.945 27.7113 190.05 27.6687 190.175 27.6687C190.306 27.6687 190.417 27.7113 190.506 27.7964C190.597 27.8805 190.642 27.9853 190.642 28.1108C190.642 28.2363 190.597 28.3411 190.506 28.4251C190.417 28.5103 190.306 28.5528 190.175 28.5528C190.05 28.5528 189.945 28.5103 189.859 28.4251C189.775 28.3411 189.733 28.2363 189.733 28.1108ZM192.138 31.3688C192.138 31.8981 192.257 32.2922 192.495 32.5508C192.732 32.8106 193.052 32.9405 193.456 32.9405C193.855 32.9405 194.166 32.8122 194.389 32.5557C194.613 32.2993 194.725 31.9145 194.725 31.4015C194.725 30.8558 194.607 30.4492 194.37 30.1818C194.132 29.9144 193.808 29.7807 193.399 29.7807C192.99 29.7807 192.678 29.9128 192.463 30.1769C192.246 30.4421 192.138 30.8394 192.138 31.3688ZM191.443 31.3606C191.443 30.9458 191.508 30.6009 191.639 30.3259C191.77 30.0498 191.936 29.8282 192.138 29.6612C192.34 29.4953 192.557 29.378 192.79 29.3092C193.021 29.2415 193.241 29.2077 193.448 29.2077C193.645 29.2077 193.859 29.2388 194.091 29.301C194.323 29.3643 194.537 29.4762 194.733 29.6366C194.93 29.7982 195.093 30.0143 195.224 30.285C195.355 30.5546 195.421 30.8967 195.421 31.3115C195.421 31.7426 195.354 32.1001 195.221 32.3838C195.087 32.6676 194.919 32.8925 194.717 33.0584C194.515 33.2254 194.297 33.3432 194.062 33.412C193.827 33.4797 193.609 33.5135 193.407 33.5135C193.2 33.5135 192.981 33.4808 192.752 33.4153C192.523 33.3498 192.312 33.2368 192.119 33.0764C191.924 32.9148 191.763 32.6949 191.636 32.4166C191.507 32.1383 191.443 31.7863 191.443 31.3606ZM196.379 33.4071V30.1082C196.384 29.9936 196.37 29.7452 196.338 29.3632L196.943 29.2814L197.034 29.8053C197.197 29.6961 197.36 29.6006 197.521 29.5188C197.682 29.4369 197.847 29.3643 198.016 29.301C198.185 29.2388 198.349 29.2077 198.507 29.2077C198.731 29.2077 198.918 29.2334 199.069 29.2846C199.218 29.337 199.339 29.4233 199.432 29.5433C199.525 29.6634 199.592 29.8216 199.633 30.0181C199.674 30.2146 199.694 30.4601 199.694 30.7548V33.4071H199.039V30.8285C199.039 30.6648 199.036 30.5185 199.031 30.3897C199.025 30.262 199.003 30.1529 198.962 30.0623C198.921 29.9728 198.858 29.9035 198.774 29.8544C198.689 29.8053 198.57 29.7807 198.417 29.7807C198.275 29.7807 198.125 29.8118 197.967 29.874C197.808 29.9373 197.653 30.0099 197.5 30.0918C197.347 30.1736 197.192 30.2691 197.034 30.3783V33.4071H196.379Z" fill="#5EBC67" stroke="#FAFAFA" stroke-width="2" mask="url(#path-3-inside-1_69_307)"/>
</g>
</g>
</g>
</g>
<g clip-path="url(#clip10_69_307)">
<g clip-path="url(#clip11_69_307)" filter="url(#filter0_d_69_307)">
<mask id="path-4-inside-2_69_307" fill="white">
<path d="M59.5283 30.024C58.0533 28.0149 56.1928 26.4103 54.1678 24.9798C53.0909 24.2216 51.9282 23.5946 50.8919 22.7728C49.7883 21.8994 48.668 21.0472 47.5317 20.2169C44.4497 17.9527 41.2683 15.8299 38.1458 13.6222C36.8432 12.7003 36.2567 11.3484 36.1693 9.78118C36.1319 9.10247 36.4538 8.84338 37.1587 8.90855C37.7945 8.96816 38.424 9.06671 39.0335 9.26062C40.1255 9.60951 41.2389 9.8384 42.3913 9.84555C42.9556 9.84873 43.4936 9.71442 43.9577 9.41083C45.0318 8.71496 45.9561 7.81171 46.6766 6.75401C46.6932 6.73176 46.6623 6.67692 46.6432 6.59427C45.8842 6.59427 45.1149 6.60619 44.3464 6.58791C44.0754 6.58155 43.8997 6.68169 43.7193 6.86925C43.2202 7.3898 42.5948 7.70531 41.9065 7.88969C40.5102 8.26163 39.2076 7.87857 37.7834 7.36596C39.0335 7.24278 40.2574 7.6171 41.3176 6.56725C40.4108 6.56725 39.6495 6.53864 38.8897 6.5744C38.1355 6.61096 37.5172 7.1935 36.7185 7.12913C37.5895 7.70293 38.4256 8.26799 39.1853 8.96498C38.7681 8.91411 38.3811 8.73927 37.9837 8.71702C37.3852 8.68205 37.0316 8.32362 36.6755 7.93023C36.5881 7.83088 36.5118 7.72359 36.4252 7.62425C35.6702 6.76514 35.0026 5.82734 34.1125 5.09221C33.9512 4.95949 33.8161 4.74173 33.5109 4.89114C34.3144 5.89013 34.8715 7.02979 35.516 8.11779L35.431 8.23064C34.6497 8.17739 34.033 7.873 33.5387 7.32463C33.4213 7.19366 33.3137 7.0542 33.2168 6.90739C32.8767 6.39558 32.5961 5.83449 32.2218 5.36719C31.6997 4.71312 31.2196 4.03202 30.7245 3.36126C30.556 3.13317 30.3407 3.01158 30.0887 2.92018C29.3067 2.63487 28.5199 2.35909 27.745 2.0563C26.6745 1.63667 25.5833 1.75827 24.4914 1.90371C23.738 2.00385 23.3533 2.51407 23.436 3.36444C23.4995 4.02169 23.5512 4.69007 23.4479 5.34176C23.3406 6.02047 23.455 6.665 23.6497 7.29125C24.0066 8.44125 24.4127 9.57613 24.8109 10.7142C25.2615 12.0017 25.7479 13.2876 26.5227 14.409C28.1289 16.7336 29.964 18.8786 32.1177 20.7128C34.6458 22.8682 37.2462 24.9377 39.7949 27.07C41.2795 28.3129 42.7545 29.5742 43.9927 31.0763C44.5451 31.7446 45.0354 32.4424 44.9273 33.3921C45.1371 33.408 45.3104 33.4311 45.4844 33.4327C46.8938 33.4539 48.3031 33.4721 49.7125 33.4875C50.3459 33.4946 50.3808 33.4422 50.2982 32.8088C50.2632 32.5426 50.1639 32.3017 50.0494 32.0633C49.8301 31.604 49.5321 31.1979 49.2142 30.8013C48.0856 29.3978 46.6623 28.3129 45.2699 27.2035C42.2268 24.7763 39.14 22.4048 36.0874 19.9896C34.9319 19.0773 33.7278 18.2166 32.705 17.1468C31.6401 16.0326 30.6474 14.8556 29.6675 13.6643C28.8998 12.7321 28.3737 11.7132 28.0232 10.5521C27.6687 9.37745 27.8245 8.29183 28.2513 7.21019C28.5382 6.48539 29.081 6.25571 29.836 6.48221C30.4659 6.67172 31.092 6.87362 31.714 7.0878C32.3482 7.30794 32.9728 7.5559 33.6023 7.79115C33.4131 7.87857 33.2431 7.87777 33.0722 7.87857C31.9564 7.88572 31.7346 8.07566 31.3913 9.13664C31.2196 9.66673 31.3389 10.1325 31.5542 10.5958C31.7307 10.9757 31.9301 11.3428 32.1392 11.7029C33.0412 13.2558 34.1157 14.6903 35.5271 15.7982C40.1112 19.3959 44.9202 22.6933 49.5511 26.2291C50.8807 27.2448 52.2151 28.2525 53.3691 29.4733C54.4587 30.6256 55.5053 31.8106 55.5784 33.6091L60.3739 33.6099C60.9867 33.6099 61.0177 33.5733 60.9175 32.9741C60.7323 31.8623 60.1792 30.9141 59.5283 30.024ZM18.2423 29.3151C17.5525 27.968 16.8102 26.648 16.1466 25.289C14.9124 22.7577 13.876 20.1843 13.613 17.3161C13.361 14.5679 13.6622 11.9246 14.418 9.30115C14.6286 8.57079 14.9012 7.86188 15.185 7.16092C14.844 6.97972 14.6437 7.18238 14.4244 7.31907C13.3984 7.96043 12.4606 8.7345 11.4346 9.36791C10.4031 9.99805 9.52957 10.856 8.88107 11.8761C8.4837 12.4952 7.93056 13.0054 7.61982 13.6849C7.8805 13.7 8.04183 13.5363 8.20078 13.3814L8.26356 13.3217L8.26912 13.317L8.34621 13.2502C9.5566 12.2973 10.6462 11.2054 11.8105 10.2008C11.979 10.0554 12.1212 9.84714 12.3684 9.82807C12.5011 10.076 12.312 10.1483 12.2134 10.2382C10.7408 11.567 9.45408 13.0706 8.13481 14.5456C7.22642 15.5621 6.31327 16.5857 5.22606 17.4139C4.44119 18.0105 3.7519 18.7234 3.18199 19.5279C2.18379 20.9258 1.13792 22.2912 0.0991891 23.6875C0.191379 23.7042 0.246216 23.7329 0.271648 23.7154C0.418642 23.6195 0.562057 23.5182 0.701602 23.4118C2.99443 21.7031 4.92088 19.6312 6.66693 17.3829C7.48869 16.3259 8.30171 15.2625 9.1187 14.2023L9.23791 14.3931C8.61378 15.3976 7.98911 16.4019 7.36391 17.4059C5.58052 20.2662 3.61353 22.9842 1.27699 25.4272C0.879057 25.8373 0.47232 26.2387 0.0570679 26.6313V30.3205C0.290722 29.9541 0.518812 29.5845 0.803329 29.2563C2.04551 27.8274 3.19788 26.3309 4.18972 24.7167C6.01762 21.746 7.62379 18.6529 9.18387 15.5367C9.76165 14.3811 10.3911 13.2566 11.1453 12.2051L11.2788 12.2997C11.0579 12.7543 10.8139 13.1994 10.6216 13.6643C9.53514 16.2981 8.40343 18.9127 7.48312 21.6133C6.98563 23.0888 6.4067 24.5356 5.749 25.947C5.57361 26.3248 5.45523 26.7266 5.39773 27.1391C5.34686 27.4872 5.30156 27.8353 5.24593 28.1826C4.95982 29.9612 4.32006 31.5666 2.96343 32.8183C2.94118 32.8382 2.95628 32.9002 2.95072 33.0027C4.58153 33.0027 6.20757 32.9948 7.8344 33.0107C8.11733 33.0122 8.27787 32.8771 8.4384 32.6856C9.09963 31.8925 9.3905 30.965 9.44534 29.9509C9.50733 28.8256 9.39368 27.7073 9.25619 26.5931C9.07896 25.153 8.91127 23.7416 9.28957 22.2832C9.73939 20.5436 9.84033 18.7244 10.3792 16.9982C10.9585 15.1369 11.4433 13.2407 12.2404 11.4525C12.5933 10.6618 12.9843 9.88847 13.5096 9.17002C13.6893 9.46487 13.493 9.67627 13.4095 9.8837C12.6593 11.7219 12.2094 13.6436 11.8621 15.5891C11.5125 17.5498 11.6086 19.5398 11.5609 21.5187C11.557 21.649 11.5808 21.7834 11.6126 21.9097C11.8463 22.8475 12.0751 23.7853 12.3255 24.7183C12.7531 26.3062 13.369 27.8377 13.7544 29.4375C14.0477 30.6527 14.2384 31.8702 13.3666 32.9638C13.3539 32.9805 13.3896 33.0345 13.4175 33.1132C14.9442 33.1132 16.4852 33.1116 18.0254 33.1132C18.6945 33.1132 18.8082 33.0242 18.9719 32.3884C19.0442 32.107 19.0593 31.8297 19.0204 31.5396C18.9131 30.7441 18.6031 30.0177 18.2423 29.3151Z"/>
</mask>
<path d="M59.5283 30.024C58.0533 28.0149 56.1928 26.4103 54.1678 24.9798C53.0909 24.2216 51.9282 23.5946 50.8919 22.7728C49.7883 21.8994 48.668 21.0472 47.5317 20.2169C44.4497 17.9527 41.2683 15.8299 38.1458 13.6222C36.8432 12.7003 36.2567 11.3484 36.1693 9.78118C36.1319 9.10247 36.4538 8.84338 37.1587 8.90855C37.7945 8.96816 38.424 9.06671 39.0335 9.26062C40.1255 9.60951 41.2389 9.8384 42.3913 9.84555C42.9556 9.84873 43.4936 9.71442 43.9577 9.41083C45.0318 8.71496 45.9561 7.81171 46.6766 6.75401C46.6932 6.73176 46.6623 6.67692 46.6432 6.59427C45.8842 6.59427 45.1149 6.60619 44.3464 6.58791C44.0754 6.58155 43.8997 6.68169 43.7193 6.86925C43.2202 7.3898 42.5948 7.70531 41.9065 7.88969C40.5102 8.26163 39.2076 7.87857 37.7834 7.36596C39.0335 7.24278 40.2574 7.6171 41.3176 6.56725C40.4108 6.56725 39.6495 6.53864 38.8897 6.5744C38.1355 6.61096 37.5172 7.1935 36.7185 7.12913C37.5895 7.70293 38.4256 8.26799 39.1853 8.96498C38.7681 8.91411 38.3811 8.73927 37.9837 8.71702C37.3852 8.68205 37.0316 8.32362 36.6755 7.93023C36.5881 7.83088 36.5118 7.72359 36.4252 7.62425C35.6702 6.76514 35.0026 5.82734 34.1125 5.09221C33.9512 4.95949 33.8161 4.74173 33.5109 4.89114C34.3144 5.89013 34.8715 7.02979 35.516 8.11779L35.431 8.23064C34.6497 8.17739 34.033 7.873 33.5387 7.32463C33.4213 7.19366 33.3137 7.0542 33.2168 6.90739C32.8767 6.39558 32.5961 5.83449 32.2218 5.36719C31.6997 4.71312 31.2196 4.03202 30.7245 3.36126C30.556 3.13317 30.3407 3.01158 30.0887 2.92018C29.3067 2.63487 28.5199 2.35909 27.745 2.0563C26.6745 1.63667 25.5833 1.75827 24.4914 1.90371C23.738 2.00385 23.3533 2.51407 23.436 3.36444C23.4995 4.02169 23.5512 4.69007 23.4479 5.34176C23.3406 6.02047 23.455 6.665 23.6497 7.29125C24.0066 8.44125 24.4127 9.57613 24.8109 10.7142C25.2615 12.0017 25.7479 13.2876 26.5227 14.409C28.1289 16.7336 29.964 18.8786 32.1177 20.7128C34.6458 22.8682 37.2462 24.9377 39.7949 27.07C41.2795 28.3129 42.7545 29.5742 43.9927 31.0763C44.5451 31.7446 45.0354 32.4424 44.9273 33.3921C45.1371 33.408 45.3104 33.4311 45.4844 33.4327C46.8938 33.4539 48.3031 33.4721 49.7125 33.4875C50.3459 33.4946 50.3808 33.4422 50.2982 32.8088C50.2632 32.5426 50.1639 32.3017 50.0494 32.0633C49.8301 31.604 49.5321 31.1979 49.2142 30.8013C48.0856 29.3978 46.6623 28.3129 45.2699 27.2035C42.2268 24.7763 39.14 22.4048 36.0874 19.9896C34.9319 19.0773 33.7278 18.2166 32.705 17.1468C31.6401 16.0326 30.6474 14.8556 29.6675 13.6643C28.8998 12.7321 28.3737 11.7132 28.0232 10.5521C27.6687 9.37745 27.8245 8.29183 28.2513 7.21019C28.5382 6.48539 29.081 6.25571 29.836 6.48221C30.4659 6.67172 31.092 6.87362 31.714 7.0878C32.3482 7.30794 32.9728 7.5559 33.6023 7.79115C33.4131 7.87857 33.2431 7.87777 33.0722 7.87857C31.9564 7.88572 31.7346 8.07566 31.3913 9.13664C31.2196 9.66673 31.3389 10.1325 31.5542 10.5958C31.7307 10.9757 31.9301 11.3428 32.1392 11.7029C33.0412 13.2558 34.1157 14.6903 35.5271 15.7982C40.1112 19.3959 44.9202 22.6933 49.5511 26.2291C50.8807 27.2448 52.2151 28.2525 53.3691 29.4733C54.4587 30.6256 55.5053 31.8106 55.5784 33.6091L60.3739 33.6099C60.9867 33.6099 61.0177 33.5733 60.9175 32.9741C60.7323 31.8623 60.1792 30.9141 59.5283 30.024ZM18.2423 29.3151C17.5525 27.968 16.8102 26.648 16.1466 25.289C14.9124 22.7577 13.876 20.1843 13.613 17.3161C13.361 14.5679 13.6622 11.9246 14.418 9.30115C14.6286 8.57079 14.9012 7.86188 15.185 7.16092C14.844 6.97972 14.6437 7.18238 14.4244 7.31907C13.3984 7.96043 12.4606 8.7345 11.4346 9.36791C10.4031 9.99805 9.52957 10.856 8.88107 11.8761C8.4837 12.4952 7.93056 13.0054 7.61982 13.6849C7.8805 13.7 8.04183 13.5363 8.20078 13.3814L8.26356 13.3217L8.26912 13.317L8.34621 13.2502C9.5566 12.2973 10.6462 11.2054 11.8105 10.2008C11.979 10.0554 12.1212 9.84714 12.3684 9.82807C12.5011 10.076 12.312 10.1483 12.2134 10.2382C10.7408 11.567 9.45408 13.0706 8.13481 14.5456C7.22642 15.5621 6.31327 16.5857 5.22606 17.4139C4.44119 18.0105 3.7519 18.7234 3.18199 19.5279C2.18379 20.9258 1.13792 22.2912 0.0991891 23.6875C0.191379 23.7042 0.246216 23.7329 0.271648 23.7154C0.418642 23.6195 0.562057 23.5182 0.701602 23.4118C2.99443 21.7031 4.92088 19.6312 6.66693 17.3829C7.48869 16.3259 8.30171 15.2625 9.1187 14.2023L9.23791 14.3931C8.61378 15.3976 7.98911 16.4019 7.36391 17.4059C5.58052 20.2662 3.61353 22.9842 1.27699 25.4272C0.879057 25.8373 0.47232 26.2387 0.0570679 26.6313V30.3205C0.290722 29.9541 0.518812 29.5845 0.803329 29.2563C2.04551 27.8274 3.19788 26.3309 4.18972 24.7167C6.01762 21.746 7.62379 18.6529 9.18387 15.5367C9.76165 14.3811 10.3911 13.2566 11.1453 12.2051L11.2788 12.2997C11.0579 12.7543 10.8139 13.1994 10.6216 13.6643C9.53514 16.2981 8.40343 18.9127 7.48312 21.6133C6.98563 23.0888 6.4067 24.5356 5.749 25.947C5.57361 26.3248 5.45523 26.7266 5.39773 27.1391C5.34686 27.4872 5.30156 27.8353 5.24593 28.1826C4.95982 29.9612 4.32006 31.5666 2.96343 32.8183C2.94118 32.8382 2.95628 32.9002 2.95072 33.0027C4.58153 33.0027 6.20757 32.9948 7.8344 33.0107C8.11733 33.0122 8.27787 32.8771 8.4384 32.6856C9.09963 31.8925 9.3905 30.965 9.44534 29.9509C9.50733 28.8256 9.39368 27.7073 9.25619 26.5931C9.07896 25.153 8.91127 23.7416 9.28957 22.2832C9.73939 20.5436 9.84033 18.7244 10.3792 16.9982C10.9585 15.1369 11.4433 13.2407 12.2404 11.4525C12.5933 10.6618 12.9843 9.88847 13.5096 9.17002C13.6893 9.46487 13.493 9.67627 13.4095 9.8837C12.6593 11.7219 12.2094 13.6436 11.8621 15.5891C11.5125 17.5498 11.6086 19.5398 11.5609 21.5187C11.557 21.649 11.5808 21.7834 11.6126 21.9097C11.8463 22.8475 12.0751 23.7853 12.3255 24.7183C12.7531 26.3062 13.369 27.8377 13.7544 29.4375C14.0477 30.6527 14.2384 31.8702 13.3666 32.9638C13.3539 32.9805 13.3896 33.0345 13.4175 33.1132C14.9442 33.1132 16.4852 33.1116 18.0254 33.1132C18.6945 33.1132 18.8082 33.0242 18.9719 32.3884C19.0442 32.107 19.0593 31.8297 19.0204 31.5396C18.9131 30.7441 18.6031 30.0177 18.2423 29.3151Z" fill="#5EBC67" stroke="#FAFAFA" stroke-width="2" mask="url(#path-4-inside-2_69_307)"/>
<path d="M46.0336 11.3572C45.8776 11.3274 45.7214 11.2986 45.5653 11.2697C45.1386 11.1909 44.7122 11.1122 44.2891 11.0139C43.9536 10.9348 43.6201 10.9285 43.2832 10.9222C43.2474 10.9215 43.2116 10.9208 43.1757 10.9201C42.9948 10.9156 42.8355 10.951 42.6906 11.0261L46.0336 11.3572ZM46.0336 11.3572C46.6838 11.4807 46.6845 11.4796 47.0219 10.8865L47.0254 10.8803C47.2311 10.5197 47.4377 10.1596 47.6443 9.79939C48.1675 8.88728 48.6908 7.97497 49.1991 7.05367L46.0336 11.3572ZM42.3055 11.354C42.333 11.3203 42.3608 11.2886 42.3891 11.2589L42.3055 11.354ZM42.3055 11.354C42.4108 11.4465 42.5184 11.5338 42.6278 11.617L42.3055 11.354ZM38.9563 32.0305L38.9564 32.0305C38.6673 31.5361 38.309 31.0821 37.9081 30.6421L37.9081 30.6421C36.5037 29.1005 34.93 27.7365 33.3299 26.3498C33.1965 26.2341 33.0628 26.1183 32.929 26.0022C32.8718 25.9526 32.8146 25.903 32.7573 25.8533C30.49 23.8882 28.1873 21.8923 26.2414 19.5139L26.2413 19.5138C25.0089 18.0062 23.8132 16.4252 23.02 14.5497C22.553 13.4478 22.1146 12.3149 21.6798 11.191C21.3754 10.4044 21.0728 9.6222 20.7632 8.85794C20.6101 8.48006 20.5582 8.09312 20.5361 7.73756C20.4835 6.95353 20.4188 6.17036 20.3419 5.38834L20.3416 5.38533L20.3416 5.38533C20.2653 4.55792 20.344 3.73699 20.6232 2.95797C20.5828 2.98052 20.5424 3.00277 20.502 3.02463L20.5017 3.02483C19.798 3.40465 19.4204 3.99317 19.2683 4.80185C19.2481 4.91681 19.2327 5.03255 19.2219 5.14877C19.1539 5.93099 19.1988 6.68961 19.2461 7.48881C19.267 7.84244 19.2885 8.20401 19.3008 8.57908L19.3008 8.57964C19.3325 9.5805 19.5918 10.5165 19.9727 11.4714C19.9727 11.4715 19.9727 11.4715 19.9728 11.4716L19.5083 11.6568C19.7282 12.2077 19.9409 12.7615 20.1535 13.3154C20.4673 14.1328 20.7812 14.9503 21.1185 15.7585L38.9563 32.0305ZM38.9563 32.0305L38.9624 32.0406C39.0681 32.2119 39.1542 32.3946 39.219 32.5852C39.2558 32.7049 39.275 32.7906 39.2836 32.8504C39.223 32.8599 39.1342 32.8667 39.0066 32.8667C39.0066 32.8667 39.0065 32.8667 39.0065 32.8667L34.9178 32.866M38.9563 32.0305L34.9178 32.866M34.9178 32.866C34.9308 32.7056 34.9227 32.5509 34.8976 32.4012C34.8404 32.0606 34.6981 31.7717 34.5823 31.5464C34.5821 31.5461 34.582 31.5458 34.5818 31.5454L34.9178 32.866ZM71.0607 33.2289C70.0622 33.2026 69.0618 33.1884 68.0652 33.1742C67.588 33.1674 67.1116 33.1607 66.6367 33.1526C66.3875 31.2879 65.4519 29.7347 64.51 28.2965C62.5744 25.3368 59.9401 23.1548 56.965 21.3977C56.3705 21.0455 55.8403 20.6807 55.3897 20.2184C54.8887 19.7034 54.3588 19.2114 53.84 18.7297C53.6731 18.5747 53.5073 18.4208 53.344 18.2675C52.6658 17.6309 52.0186 16.995 51.4472 16.2938C50.5664 15.2128 49.3274 14.7123 48.2469 14.2759C48.2115 14.2616 48.1763 14.2474 48.1412 14.2332C46.9279 13.7413 45.8347 13.0619 44.6977 12.3553C44.4959 12.2298 44.2926 12.1035 44.0871 11.9773C44.0429 11.95 43.999 11.923 43.9554 11.8962C43.6963 11.7369 43.4478 11.5841 43.2102 11.4209C43.2294 11.4213 43.2484 11.4217 43.2672 11.422C43.6136 11.4289 43.8937 11.4344 44.1745 11.5005L44.1759 11.5009C44.6111 11.602 45.0544 11.6839 45.4846 11.7633C45.6383 11.7917 45.7904 11.8198 45.9398 11.8483L45.9403 11.8484L45.9581 11.8518C46.1046 11.8797 46.2506 11.9074 46.3752 11.9176C46.5119 11.9288 46.6867 11.9258 46.8639 11.8402C47.0381 11.756 47.1499 11.6229 47.2274 11.5127C47.2987 11.4112 47.3723 11.2819 47.4481 11.1486L47.4598 11.128C47.664 10.7699 47.8698 10.4112 48.0759 10.0518C48.5999 9.13833 49.1265 8.22038 49.6369 7.29518L49.6375 7.29403C49.7004 7.17923 49.7359 7.15837 49.7406 7.15567L49.7407 7.15557C49.7439 7.15369 49.7757 7.13458 49.8952 7.13991L49.8972 7.13999C50.4137 7.16094 50.9374 7.15759 51.4877 7.15333L49.1435 12.1181L49.0466 12.3232L49.1373 12.5313C49.1909 12.6543 49.2728 12.738 49.3345 12.79C49.3969 12.8426 49.4618 12.882 49.5107 12.9096C49.5544 12.9342 49.601 12.9579 49.6368 12.9761L49.6496 12.9826C49.6914 13.0039 49.7215 13.0195 49.747 13.0345L49.747 13.0346L49.7564 13.0399C49.7943 13.061 49.8275 13.0895 49.8543 13.1236C49.881 13.1577 49.9007 13.1969 49.9121 13.2387L49.9134 13.243C50.2806 14.5363 51.2146 15.179 52.3309 15.558C54.7581 16.3824 57.1595 17.2162 59.469 18.2672L59.4691 18.2672C60.1334 18.5694 60.7723 18.8854 61.4196 19.2056C61.8826 19.4346 62.3499 19.6657 62.8338 19.8954L62.8351 19.896C63.3384 20.1331 63.9151 20.3751 64.5663 20.4299L64.5668 20.4299C65.0834 20.4729 65.5827 20.4147 65.9627 20.0945C66.1963 19.8976 66.3409 19.6388 66.429 19.3476C66.4973 19.4359 66.5657 19.5261 66.6355 19.6184C66.7711 19.7974 66.9125 19.9841 67.0714 20.1797C67.5464 20.7658 68.0133 21.359 68.4826 21.9554L68.4857 21.9593C68.9533 22.5535 69.4234 23.1508 69.9022 23.7417C70.0754 23.9556 70.1464 24.1334 70.1524 24.3858C70.1767 25.5137 70.1462 26.642 70.0693 27.7701C69.9818 29.0156 69.9694 30.3448 70.5997 31.6297C70.8313 32.1054 70.9599 32.6452 71.0607 33.2289ZM42.695 11.6675C43.0184 11.9074 43.3552 12.1143 43.689 12.3194C43.7344 12.3473 43.7798 12.3752 43.825 12.4031C44.0261 12.5266 44.2265 12.6512 44.4268 12.7758C45.5628 13.482 46.6971 14.1873 47.9537 14.6967L48.0215 14.7241C49.1294 15.1721 50.2612 15.6299 51.0595 16.6096C51.7988 17.5167 52.6527 18.3096 53.5067 19.1026C54.0235 19.5824 54.5403 20.0623 55.0317 20.5674C55.5268 21.0753 56.0998 21.4663 56.7102 21.8279C59.6412 23.5588 62.2098 25.6927 64.0917 28.5705C65.0692 30.063 65.976 31.5913 66.1652 33.4216L42.695 11.6675ZM18.7489 7.55847C18.7693 7.90404 18.7897 8.24961 18.801 8.59547L18.7764 4.71237C18.7535 4.84219 18.736 4.9729 18.7239 5.10417C18.6524 5.92461 18.7007 6.74152 18.7489 7.55847ZM29.7171 26.096C29.3125 25.7059 28.9098 25.3177 28.5138 24.9287L33.1089 29.5328C32.033 28.3287 30.867 27.2046 29.7171 26.096Z" fill="#5EBC67" stroke="#FAFAFA"/>
<path d="M28.0142 30.7854L28.0142 30.7854C27.2524 29.6978 26.3756 28.7288 25.4751 27.7335C25.0955 27.314 24.7117 26.8899 24.3305 26.4502L24.3303 26.45C22.7472 24.6215 21.154 22.7384 19.9318 20.5689L19.9315 20.5683C18.8986 18.7296 18.1153 16.786 17.4567 14.8126L28.0142 30.7854ZM28.0142 30.7854L28.0184 30.7912M28.0142 30.7854L28.0184 30.7912M28.0184 30.7912C28.2675 31.1363 28.4813 31.5056 28.6563 31.8936C28.7577 32.1327 28.8102 32.3545 28.803 32.5747L28.803 32.5748M28.0184 30.7912L28.803 32.5748M16.676 6.3437C16.4352 6.75758 16.2734 7.22137 16.1779 7.73009L16.1778 7.7303C16.0953 8.1685 16.0314 8.58947 15.966 9.01992C15.9176 9.33802 15.8685 9.6613 15.8105 10.0005L15.8104 10.0013C15.5868 11.2984 15.5125 12.5861 15.707 13.8498L15.707 13.8499C16.0995 16.4066 16.8824 18.8878 18.0285 21.2066L18.0291 21.2077C19.151 23.4924 20.6241 25.551 22.1275 27.652L22.1927 27.7431L22.1929 27.7433C22.2916 27.8814 22.3922 28.0206 22.4939 28.161C23.0723 28.9604 23.6818 29.8028 24.1322 30.7438L16.676 6.3437ZM16.676 6.3437C16.5086 8.10077 16.3467 9.91814 16.5986 11.7503C16.7248 12.6729 17.0261 13.5525 17.3081 14.3757C17.3586 14.5231 17.4085 14.6688 17.4567 14.8125L16.676 6.3437ZM28.803 32.5748C28.8007 32.6443 28.7971 32.6959 28.7929 32.7342C28.7577 32.7369 28.7108 32.7387 28.6487 32.7388C27.5255 32.7405 26.4021 32.7402 25.2332 32.7399C24.9812 32.7398 24.7272 32.7397 24.4705 32.7397M28.803 32.5748L24.4705 32.7397M59.4153 15.1208L59.4153 15.1208C59.9724 15.32 60.4946 15.4544 61.0287 15.4322L61.0288 15.4322C61.3928 15.4171 61.6073 15.3309 61.7442 15.2168C61.88 15.1037 62.0017 14.9114 62.0766 14.5583C62.0854 14.5167 62.0903 14.4744 62.0984 14.4058C62.0997 14.3956 62.1009 14.3848 62.1023 14.3733C62.1115 14.2962 62.1251 14.1875 62.1565 14.0742M59.4153 15.1208L62.6389 14.2055M59.4153 15.1208C58.9723 14.9624 58.5216 14.7909 58.0612 14.6157C57.9951 14.5906 57.9289 14.5654 57.8624 14.5401M59.4153 15.1208L57.8624 14.5401M62.1565 14.0742C62.1568 14.0731 62.1571 14.072 62.1574 14.0709L62.6389 14.2055M62.1565 14.0742C62.1563 14.0747 62.1562 14.0753 62.1561 14.0758L62.6389 14.2055M62.1565 14.0742C62.1685 14.0286 62.1644 14.0098 62.1626 14.0024C62.16 13.9916 62.1504 13.9626 62.1078 13.9093M62.6389 14.2055C62.7017 13.9719 62.6485 13.7843 62.4975 13.596M62.1078 13.9093C62.108 13.9095 62.1081 13.9097 62.1083 13.9099L62.4975 13.596M62.1078 13.9093C61.4661 13.1137 60.83 12.3133 60.1747 11.4888C60.1495 11.4571 60.1243 11.4253 60.099 11.3935C60.0076 11.8995 59.8983 12.4353 59.7049 12.9519L59.7046 12.9527C59.5201 13.4432 59.2348 13.8443 58.842 14.1288C58.5525 14.3384 58.2219 14.4722 57.8624 14.5401M62.1078 13.9093C62.1076 13.9091 62.1075 13.9089 62.1073 13.9087L62.4975 13.596M62.4975 13.596L57.8624 14.5401M60.1786 10.9446C60.1866 10.9009 60.1927 10.8637 60.1981 10.831C60.2042 10.7943 60.2093 10.7634 60.2149 10.7357C60.097 10.5875 59.9785 10.4384 59.8589 10.2883C59.748 10.4742 59.7237 10.6269 59.7006 10.7718C59.696 10.8002 59.6916 10.8284 59.6865 10.8565M60.1786 10.9446L59.6865 10.8565M60.1786 10.9446C60.1786 10.945 60.1785 10.9454 60.1784 10.9458L59.6865 10.8565M60.1786 10.9446L59.6838 10.8712C59.6847 10.8663 59.6856 10.8614 59.6865 10.8565M57.4594 14.3875C57.459 14.3874 57.4586 14.3872 57.4582 14.3871L57.4701 14.5878C57.4704 14.5878 57.4707 14.5878 57.471 14.5878C57.4713 14.5878 57.4717 14.5878 57.472 14.5877L57.4594 14.3875ZM57.4594 14.3875C57.5946 14.4384 57.7289 14.4894 57.8624 14.5401M57.4594 14.3875L57.8624 14.5401M24.4705 32.7397C24.5232 32.4792 24.5339 32.2263 24.5105 31.9795C24.4671 31.5215 24.3087 31.1113 24.1325 30.7444L24.4705 32.7397ZM53.3995 12.9505L53.3983 12.9499C53.27 12.8847 53.1309 12.8357 53.0103 12.797C53.276 12.4426 53.4459 12.0631 53.584 11.6924L53.5842 11.692C53.7933 11.1299 54.0093 10.5634 54.2263 9.99455C54.5646 9.10774 54.9051 8.21512 55.2247 7.32414C55.2584 7.23072 55.284 7.18976 55.2953 7.17458C55.3112 7.17219 55.3451 7.17006 55.4064 7.17674C55.774 7.22271 56.1459 7.22284 56.5136 7.17715L56.5185 7.17648C56.6442 7.15957 56.7083 7.18106 56.7523 7.20529C56.8082 7.23612 56.8798 7.2992 56.9768 7.43457L56.9774 7.43551C57.0227 7.49843 57.0274 7.52246 57.0278 7.5246L57.0278 7.52467C57.0281 7.52603 57.0289 7.53014 57.0282 7.54024C57.0273 7.55143 57.0244 7.57216 57.0146 7.60583L57.0143 7.6067C56.623 8.95678 56.2495 10.3109 55.8791 11.6621C55.7339 12.1912 55.3157 12.4428 54.6719 12.8162C54.198 13.091 53.8034 13.1569 53.3995 12.9505ZM55.2836 7.17731C55.2835 7.17724 55.2845 7.17678 55.2869 7.17618C55.2849 7.17709 55.2836 7.17739 55.2836 7.17731Z" fill="#5EBC67" stroke="#FAFAFA"/>
</g>
</g>
</g>
</g>
</g>
</g>
<defs>
<filter id="filter0_d_69_307" x="-3.94293" y="1.75037" width="79.543" height="39.9839" filterUnits="userSpaceOnUse" color-interpolation-filters="sRGB">
<feFlood flood-opacity="0" result="BackgroundImageFix"/>
<feColorMatrix in="SourceAlpha" type="matrix" values="0 0 0 0 0 0 0 0 0 0 0 0 0 0 0 0 0 0 127 0" result="hardAlpha"/>
<feOffset dy="4"/>
<feGaussianBlur stdDeviation="2"/>
<feComposite in2="hardAlpha" operator="out"/>
<feColorMatrix type="matrix" values="0 0 0 0 0 0 0 0 0 0 0 0 0 0 0 0 0 0 0.25 0"/>
<feBlend mode="normal" in2="BackgroundImageFix" result="effect1_dropShadow_69_307"/>
<feBlend mode="normal" in="SourceGraphic" in2="effect1_dropShadow_69_307" result="shape"/>
</filter>
<clipPath id="clip0_69_307">
<rect width="200" height="35.3333" fill="white"/>
</clipPath>
<clipPath id="clip1_69_307">
<rect width="200" height="35.3333" fill="white" transform="translate(-0.121216 0.0755615)"/>
</clipPath>
<clipPath id="clip2_69_307">
<rect width="199.643" height="35.4846" fill="white" transform="translate(0.0570679)"/>
</clipPath>
<clipPath id="clip3_69_307">
<rect width="199.643" height="35.4846" fill="white" transform="translate(0.0570679)"/>
</clipPath>
<clipPath id="clip4_69_307">
<rect width="115.765" height="35.308" fill="white" transform="translate(83.9351 0.0882568)"/>
</clipPath>
<clipPath id="clip5_69_307">
<rect width="115.765" height="35.308" fill="white" transform="translate(83.9351 0.0882568)"/>
</clipPath>
<clipPath id="clip6_69_307">
<rect width="115.765" height="21.9355" fill="white" transform="translate(83.9351 0.0882568)"/>
</clipPath>
<clipPath id="clip7_69_307">
<rect width="115.765" height="21.9355" fill="white" transform="translate(83.9351 0.0882568)"/>
</clipPath>
<clipPath id="clip8_69_307">
<rect width="115.765" height="8.19411" fill="white" transform="translate(83.9351 27.2021)"/>
</clipPath>
<clipPath id="clip9_69_307">
<rect width="115.765" height="8.19411" fill="white" transform="translate(83.9351 27.2021)"/>
</clipPath>
<clipPath id="clip10_69_307">
<rect width="71.543" height="31.9839" fill="white" transform="translate(0.0570679 1.75037)"/>
</clipPath>
<clipPath id="clip11_69_307">
<rect width="71.543" height="31.9839" fill="white" transform="translate(0.0570679 1.75037)"/>
</clipPath>
</defs>
</svg>
