<svg width="84" height="84" viewBox="0 0 84 84" fill="none" xmlns="http://www.w3.org/2000/svg">
<g id="mingcute:grass-fill" clip-path="url(#clip0_69_293)">
<g id="Group">
<path id="Vector" fill-rule="evenodd" clip-rule="evenodd" d="M22.246 11.3225C22.8089 10.8485 23.5069 10.5638 24.2408 10.5092C24.9747 10.4545 25.7071 10.6326 26.334 11.018C38.43 18.4625 45.059 27.8811 48.594 38.248C49.469 40.8135 50.1515 43.428 50.68 46.074C54.2815 40.019 60.0355 35.217 68.7015 31.752C69.3125 31.508 69.98 31.4412 70.6273 31.5592C71.2746 31.6772 71.8755 31.9753 72.3611 32.4193C72.8467 32.8632 73.1974 33.4351 73.3728 34.0692C73.5482 34.7034 73.5414 35.3741 73.353 36.0045L72.7195 38.1185C67.9595 53.9665 66.5 58.821 66.5 70C66.5 70.9283 66.1313 71.8185 65.4749 72.4749C64.8185 73.1313 63.9283 73.5 63 73.5H21C20.0717 73.5 19.1815 73.1313 18.5251 72.4749C17.8687 71.8185 17.5 70.9283 17.5 70C17.5 56.476 15.848 48.1075 10.6785 32.606C10.4681 31.973 10.443 31.293 10.6062 30.6462C10.7693 29.9994 11.1139 29.4126 11.5994 28.9551C12.0849 28.4976 12.691 28.1883 13.3464 28.0638C14.0017 27.9392 14.679 28.0045 15.2985 28.252C20.181 30.2015 23.891 32.8055 26.691 35.882C25.754 28.82 23.9265 21.9049 21.252 15.302C20.978 14.6185 20.9265 13.8659 21.105 13.1514C21.2834 12.4369 21.6827 11.7969 22.246 11.3225Z" fill="#FAFAFA"/>
</g>
</g>
<defs>
<clipPath id="clip0_69_293">
<rect width="84" height="84" fill="white"/>
</clipPath>
</defs>
</svg>
